<?xml version="1.0" encoding="UTF-8" standalone="no"?>
<!-- Created with Inkscape (http://www.inkscape.org/) -->

<svg
   version="1.1"
   id="svg2"
   xml:space="preserve"
   width="924.15997"
   height="809.27997"
   viewBox="0 0 924.15997 809.27997"
   sodipodi:docname="jade_state_algorithm-2.pdf"
   xmlns:inkscape="http://www.inkscape.org/namespaces/inkscape"
   xmlns:sodipodi="http://sodipodi.sourceforge.net/DTD/sodipodi-0.dtd"
   xmlns="http://www.w3.org/2000/svg"
   xmlns:svg="http://www.w3.org/2000/svg"><defs
     id="defs6"><clipPath
       clipPathUnits="userSpaceOnUse"
       id="clipPath16"><path
         d="M 0,0 H 2889 V 2529.0039 H 0 Z"
         clip-rule="evenodd"
         id="path14" /></clipPath><clipPath
       clipPathUnits="userSpaceOnUse"
       id="clipPath28"><path
         d="M 78.125,68.75 H 2812.5 V 2462.5 H 78.125 Z"
         clip-rule="evenodd"
         id="path26" /></clipPath></defs><sodipodi:namedview
     id="namedview4"
     pagecolor="#ffffff"
     bordercolor="#666666"
     borderopacity="1.0"
     inkscape:pageshadow="2"
     inkscape:pageopacity="0.0"
     inkscape:pagecheckerboard="0" /><g
     id="g8"
     inkscape:groupmode="layer"
     inkscape:label="jade_state_algorithm-2"
     transform="matrix(0.31999998,0,0,0.31999998,0,2.3565332e-5)"><g
       id="g10"><g
         id="g12"
         clip-path="url(#clipPath16)"><g
           id="g18"
           transform="scale(3.125)"><path
             d="M 0,0 H 924 V 809 H 0 Z"
             style="fill:#ffffff;fill-opacity:1;fill-rule:nonzero;stroke:none"
             id="path20" /></g></g></g><g
       id="g22"><g
         id="g24"
         clip-path="url(#clipPath28)"><g
           id="g30"
           transform="matrix(2.8317995,0,0,2.8317995,-907.03412,-661.5611)"><path
             d="m 465,300 v 23.63"
             style="fill:none;stroke:#000000;stroke-width:1;stroke-linecap:butt;stroke-linejoin:miter;stroke-miterlimit:10;stroke-dasharray:none;stroke-opacity:1"
             id="path32" /><path
             d="m 465,328.88 -3.5,-7 3.5,1.75 3.5,-1.75 z"
             style="fill:#000000;fill-opacity:1;fill-rule:nonzero;stroke:none"
             id="path34" /><path
             d="m 465,328.88 -3.5,-7 3.5,1.75 3.5,-1.75 z"
             style="fill:none;stroke:#000000;stroke-width:1;stroke-linecap:butt;stroke-linejoin:miter;stroke-miterlimit:10;stroke-dasharray:none;stroke-opacity:1"
             id="path36" /><path
             d="m 356,260 h 218 c 0.39392,0 0.78412,0.0384 1.17053,0.1153 0.38635,0.0768 0.76154,0.19064 1.12549,0.3414 0.36395,0.15075 0.70972,0.33557 1.03729,0.55447 0.32758,0.21887 0.63068,0.46759 0.9093,0.74618 0.27857,0.27854 0.52729,0.58161 0.74616,0.90918 0.21881,0.32758 0.40363,0.67337 0.55444,1.03736 0.15082,0.36398 0.26459,0.73916 0.34143,1.12558 C 579.96155,265.21585 580,265.60605 580,266 v 28 c 0,0.39395 -0.0385,0.78412 -0.11536,1.17053 -0.0768,0.38639 -0.19061,0.76154 -0.34143,1.12552 -0.15081,0.36398 -0.33563,0.70978 -0.55444,1.03735 -0.21887,0.32755 -0.46759,0.63062 -0.74616,0.90921 -0.27862,0.27857 -0.58172,0.52729 -0.90924,0.74619 -0.32757,0.21887 -0.6734,0.40369 -1.03735,0.55444 -0.36395,0.15076 -0.73914,0.26456 -1.12549,0.34143 -0.38641,0.0769 -0.77661,0.1153 -1.17053,0.11533 H 356 c -0.39395,-3e-5 -0.78415,-0.0385 -1.17056,-0.11533 -0.38639,-0.0769 -0.7616,-0.19067 -1.12558,-0.34143 -0.36399,-0.15075 -0.70978,-0.33557 -1.03736,-0.55447 -0.32757,-0.21887 -0.63064,-0.46759 -0.90918,-0.74616 -0.27859,-0.27859 -0.52734,-0.58166 -0.74621,-0.90921 -0.21887,-0.32757 -0.40369,-0.67337 -0.55444,-1.03735 -0.15079,-0.36398 -0.26459,-0.73913 -0.34141,-1.12552 C 350.03839,294.78412 349.99997,294.39395 350,294 v -28 c -3e-5,-0.39395 0.0384,-0.78415 0.11523,-1.17053 0.0768,-0.38642 0.19065,-0.7616 0.34144,-1.12558 0.15075,-0.36399 0.33557,-0.70978 0.55444,-1.03736 0.21887,-0.32757 0.46762,-0.63064 0.74621,-0.90918 0.27854,-0.27859 0.58161,-0.52731 0.90918,-0.74618 0.32758,-0.2189 0.67337,-0.40372 1.03736,-0.55447 0.36398,-0.15076 0.73919,-0.26456 1.12558,-0.3414 C 355.21585,260.03842 355.60605,260 356,260 Z"
             style="fill:#ffffff;fill-opacity:1;fill-rule:nonzero;stroke:none"
             id="path38" /><path
             d="m 356,260 h 218 c 0.39392,0 0.78412,0.0384 1.17053,0.1153 0.38635,0.0768 0.76154,0.19064 1.12549,0.3414 0.36395,0.15075 0.70972,0.33557 1.03729,0.55447 0.32758,0.21887 0.63068,0.46759 0.9093,0.74618 0.27857,0.27854 0.52729,0.58161 0.74616,0.90918 0.21881,0.32758 0.40363,0.67337 0.55444,1.03736 0.15082,0.36398 0.26459,0.73916 0.34143,1.12558 C 579.96155,265.21585 580,265.60605 580,266 v 28 c 0,0.39395 -0.0385,0.78412 -0.11536,1.17053 -0.0768,0.38639 -0.19061,0.76154 -0.34143,1.12552 -0.15081,0.36398 -0.33563,0.70978 -0.55444,1.03735 -0.21887,0.32755 -0.46759,0.63062 -0.74616,0.90921 -0.27862,0.27857 -0.58172,0.52729 -0.90924,0.74619 -0.32757,0.21887 -0.6734,0.40369 -1.03735,0.55444 -0.36395,0.15076 -0.73914,0.26456 -1.12549,0.34143 -0.38641,0.0769 -0.77661,0.1153 -1.17053,0.11533 H 356 c -0.39395,-3e-5 -0.78415,-0.0385 -1.17056,-0.11533 -0.38639,-0.0769 -0.7616,-0.19067 -1.12558,-0.34143 -0.36399,-0.15075 -0.70978,-0.33557 -1.03736,-0.55447 -0.32757,-0.21887 -0.63064,-0.46759 -0.90918,-0.74616 -0.27859,-0.27859 -0.52734,-0.58166 -0.74621,-0.90921 -0.21887,-0.32757 -0.40369,-0.67337 -0.55444,-1.03735 -0.15079,-0.36398 -0.26459,-0.73913 -0.34141,-1.12552 C 350.03839,294.78412 349.99997,294.39395 350,294 v -28 c -3e-5,-0.39395 0.0384,-0.78415 0.11523,-1.17053 0.0768,-0.38642 0.19065,-0.7616 0.34144,-1.12558 0.15075,-0.36399 0.33557,-0.70978 0.55444,-1.03736 0.21887,-0.32757 0.46762,-0.63064 0.74621,-0.90918 0.27854,-0.27859 0.58161,-0.52731 0.90918,-0.74618 0.32758,-0.2189 0.67337,-0.40372 1.03736,-0.55447 0.36398,-0.15076 0.73919,-0.26456 1.12558,-0.3414 C 355.21585,260.03842 355.60605,260 356,260 Z"
             style="fill:none;stroke:#000000;stroke-width:1;stroke-linecap:butt;stroke-linejoin:miter;stroke-miterlimit:10;stroke-dasharray:none;stroke-opacity:1"
             id="path40" /></g><g
           id="g42"
           transform="matrix(2.8317995,0,0,2.8317995,-908.45001,-662.97699)"><text
             transform="translate(351.78125,284)"
             style="font-variant:normal;font-weight:bold;font-size:12px;font-family:Arial;-inkscape-font-specification:Arial-BoldMT;writing-mode:lr-tb;fill:#000000;fill-opacity:1;fill-rule:nonzero;stroke:none"
             id="text46"><tspan
               x="0 6.6738281 13.347656 20.021484 26.695312 34.025391 38.021484 41.355469 48.685547 56.015625 62.689453 69.363281 73.359375 80.033203 84.029297 90.703125 94.037109 101.04492 104.37891 111.70898 118.38281 125.05664 129.05273 135.72656 142.40039 149.07422 155.74805 162.42188 169.75195 173.74805 177.08203 184.41211 191.74219 198.41602 205.08984 209.08594 215.75977 219.75586"
               y="0"
               sodipodi:role="line"
               id="tspan44">execution_state = next_execution_state</tspan></text></g><g
           id="g48"
           transform="matrix(2.8317995,0,0,2.8317995,-907.03412,-661.5611)"><path
             d="m 356,330 h 218 c 0.39392,0 0.78412,0.0384 1.17053,0.1153 0.38635,0.0768 0.76154,0.19064 1.12549,0.3414 0.36395,0.15075 0.70972,0.33557 1.03729,0.55444 0.32758,0.21887 0.63068,0.46759 0.9093,0.74618 0.27857,0.27857 0.52729,0.58164 0.74616,0.90921 0.21881,0.32758 0.40363,0.67334 0.55444,1.03733 0.15082,0.36398 0.26459,0.73916 0.34143,1.12558 C 579.96155,335.21582 580,335.60602 580,336 v 28 c 0,0.39395 -0.0385,0.78415 -0.11536,1.17056 -0.0768,0.38636 -0.19061,0.76154 -0.34143,1.12552 -0.15081,0.36398 -0.33563,0.70975 -0.55444,1.03732 -0.21887,0.32755 -0.46759,0.63062 -0.74616,0.90921 -0.27862,0.27854 -0.58172,0.52726 -0.90924,0.74616 -0.32757,0.21887 -0.6734,0.40369 -1.03735,0.55447 -0.36395,0.15076 -0.73914,0.26459 -1.12549,0.34146 C 574.78412,369.9615 574.39392,369.99997 574,370 H 356 c -0.39395,-3e-5 -0.78415,-0.0385 -1.17056,-0.11533 -0.38639,-0.0768 -0.7616,-0.19064 -1.12558,-0.3414 -0.36399,-0.15078 -0.70978,-0.33563 -1.03736,-0.55447 -0.32757,-0.2189 -0.63064,-0.46765 -0.90918,-0.74619 -0.27859,-0.27859 -0.52734,-0.58166 -0.74621,-0.90921 -0.21887,-0.32757 -0.40369,-0.67334 -0.55444,-1.03732 -0.15079,-0.36398 -0.26459,-0.73916 -0.34141,-1.12555 C 350.03839,364.78415 349.99997,364.39395 350,364 v -28 c -3e-5,-0.39398 0.0384,-0.78418 0.11523,-1.17056 0.0768,-0.38642 0.19065,-0.7616 0.34144,-1.12558 0.15075,-0.36399 0.33557,-0.70975 0.55444,-1.03733 0.21887,-0.32757 0.46762,-0.63064 0.74621,-0.90921 0.27854,-0.27859 0.58161,-0.52731 0.90918,-0.74618 0.32758,-0.21887 0.67337,-0.40369 1.03736,-0.55444 0.36398,-0.15076 0.73919,-0.26456 1.12558,-0.3414 C 355.21585,330.03842 355.60605,330 356,330 Z"
             style="fill:#ffffff;fill-opacity:1;fill-rule:nonzero;stroke:none"
             id="path50" /><path
             d="m 356,330 h 218 c 0.39392,0 0.78412,0.0384 1.17053,0.1153 0.38635,0.0768 0.76154,0.19064 1.12549,0.3414 0.36395,0.15075 0.70972,0.33557 1.03729,0.55444 0.32758,0.21887 0.63068,0.46759 0.9093,0.74618 0.27857,0.27857 0.52729,0.58164 0.74616,0.90921 0.21881,0.32758 0.40363,0.67334 0.55444,1.03733 0.15082,0.36398 0.26459,0.73916 0.34143,1.12558 C 579.96155,335.21582 580,335.60602 580,336 v 28 c 0,0.39395 -0.0385,0.78415 -0.11536,1.17056 -0.0768,0.38636 -0.19061,0.76154 -0.34143,1.12552 -0.15081,0.36398 -0.33563,0.70975 -0.55444,1.03732 -0.21887,0.32755 -0.46759,0.63062 -0.74616,0.90921 -0.27862,0.27854 -0.58172,0.52726 -0.90924,0.74616 -0.32757,0.21887 -0.6734,0.40369 -1.03735,0.55447 -0.36395,0.15076 -0.73914,0.26459 -1.12549,0.34146 C 574.78412,369.9615 574.39392,369.99997 574,370 H 356 c -0.39395,-3e-5 -0.78415,-0.0385 -1.17056,-0.11533 -0.38639,-0.0768 -0.7616,-0.19064 -1.12558,-0.3414 -0.36399,-0.15078 -0.70978,-0.33563 -1.03736,-0.55447 -0.32757,-0.2189 -0.63064,-0.46765 -0.90918,-0.74619 -0.27859,-0.27859 -0.52734,-0.58166 -0.74621,-0.90921 -0.21887,-0.32757 -0.40369,-0.67334 -0.55444,-1.03732 -0.15079,-0.36398 -0.26459,-0.73916 -0.34141,-1.12555 C 350.03839,364.78415 349.99997,364.39395 350,364 v -28 c -3e-5,-0.39398 0.0384,-0.78418 0.11523,-1.17056 0.0768,-0.38642 0.19065,-0.7616 0.34144,-1.12558 0.15075,-0.36399 0.33557,-0.70975 0.55444,-1.03733 0.21887,-0.32757 0.46762,-0.63064 0.74621,-0.90921 0.27854,-0.27859 0.58161,-0.52731 0.90918,-0.74618 0.32758,-0.21887 0.67337,-0.40369 1.03736,-0.55444 0.36398,-0.15076 0.73919,-0.26456 1.12558,-0.3414 C 355.21585,330.03842 355.60605,330 356,330 Z"
             style="fill:none;stroke:#000000;stroke-width:1;stroke-linecap:butt;stroke-linejoin:miter;stroke-miterlimit:10;stroke-dasharray:none;stroke-opacity:1"
             id="path52" /></g><g
           id="g54"
           transform="matrix(2.8317995,0,0,2.8317995,-908.45001,-662.97699)"><text
             transform="translate(428.48438,354)"
             style="font-variant:normal;font-weight:bold;font-size:12px;font-family:Arial;-inkscape-font-specification:Arial-BoldMT;writing-mode:lr-tb;fill:#000000;fill-opacity:1;fill-rule:nonzero;stroke:none"
             id="text58"><tspan
               x="0 7.3300781 14.003906 17.337891 24.345703 27.679688 35.009766 41.683594 48.357422 52.353516 59.027344 66.357422"
               y="0"
               sodipodi:role="line"
               id="tspan56">pc = next_pc</tspan></text></g><g
           id="g60"
           transform="matrix(2.8317995,0,0,2.8317995,-907.03412,-661.5611)"><path
             d="m 465,480 v 13.63"
             style="fill:none;stroke:#000000;stroke-width:1;stroke-linecap:butt;stroke-linejoin:miter;stroke-miterlimit:10;stroke-dasharray:none;stroke-opacity:1"
             id="path62" /><path
             d="m 465,498.88 -3.5,-7 3.5,1.75 3.5,-1.75 z"
             style="fill:#000000;fill-opacity:1;fill-rule:nonzero;stroke:none"
             id="path64" /><path
             d="m 465,498.88 -3.5,-7 3.5,1.75 3.5,-1.75 z"
             style="fill:none;stroke:#000000;stroke-width:1;stroke-linecap:butt;stroke-linejoin:miter;stroke-miterlimit:10;stroke-dasharray:none;stroke-opacity:1"
             id="path66" /></g><g
           id="g68"
           transform="matrix(2.8317995,0,0,2.8317995,-908.45001,-662.97699)"><path
             d="m 465,410 95,35 -95,35 -95,-35 z"
             style="fill:#ffffff;fill-opacity:1;fill-rule:nonzero;stroke:none"
             id="path70" /><path
             d="m 465,410 95,35 -95,35 -95,-35 z"
             style="fill:none;stroke:#000000;stroke-width:1;stroke-linecap:butt;stroke-linejoin:miter;stroke-miterlimit:10;stroke-dasharray:none;stroke-opacity:1"
             id="path72" /><text
             transform="translate(393.29688,449)"
             style="font-variant:normal;font-weight:bold;font-size:12px;font-family:Arial;-inkscape-font-specification:Arial-BoldMT;writing-mode:lr-tb;fill:#000000;fill-opacity:1;fill-rule:nonzero;stroke:none"
             id="text76"><tspan
               x="0 6.6738281 13.347656 20.021484 26.695312 34.025391 38.021484 41.355469 48.685547 56.015625 62.689453 69.363281 73.359375 80.033203 84.029297 90.703125 94.037109 101.04492 108.05273 111.38672 118.7168 125.39062 129.38672 136.06055"
               y="0"
               sodipodi:role="line"
               id="tspan74">execution_state == Fetch</tspan></text></g><g
           id="g78"
           transform="matrix(2.8317995,0,0,2.8317995,-907.03412,-661.5611)"><path
             d="m 465,370 v 33.63"
             style="fill:none;stroke:#000000;stroke-width:1;stroke-linecap:butt;stroke-linejoin:miter;stroke-miterlimit:10;stroke-dasharray:none;stroke-opacity:1"
             id="path80" /><path
             d="m 465,408.88 -3.5,-7 3.5,1.75 3.5,-1.75 z"
             style="fill:#000000;fill-opacity:1;fill-rule:nonzero;stroke:none"
             id="path82" /><path
             d="m 465,408.88 -3.5,-7 3.5,1.75 3.5,-1.75 z"
             style="fill:none;stroke:#000000;stroke-width:1;stroke-linecap:butt;stroke-linejoin:miter;stroke-miterlimit:10;stroke-dasharray:none;stroke-opacity:1"
             id="path84" /><path
             d="m 705,480 v 13.63"
             style="fill:none;stroke:#000000;stroke-width:1;stroke-linecap:butt;stroke-linejoin:miter;stroke-miterlimit:10;stroke-dasharray:none;stroke-opacity:1"
             id="path86" /><path
             d="m 705,498.88 -3.5,-7 3.5,1.75 3.5,-1.75 z"
             style="fill:#000000;fill-opacity:1;fill-rule:nonzero;stroke:none"
             id="path88" /><path
             d="m 705,498.88 -3.5,-7 3.5,1.75 3.5,-1.75 z"
             style="fill:none;stroke:#000000;stroke-width:1;stroke-linecap:butt;stroke-linejoin:miter;stroke-miterlimit:10;stroke-dasharray:none;stroke-opacity:1"
             id="path90" /></g><g
           id="g92"
           transform="matrix(2.8317995,0,0,2.8317995,-908.45001,-662.97699)"><path
             d="m 705,410 95,35 -95,35 -95,-35 z"
             style="fill:#ffffff;fill-opacity:1;fill-rule:nonzero;stroke:none"
             id="path94" /><path
             d="m 705,410 95,35 -95,35 -95,-35 z"
             style="fill:none;stroke:#000000;stroke-width:1;stroke-linecap:butt;stroke-linejoin:miter;stroke-miterlimit:10;stroke-dasharray:none;stroke-opacity:1"
             id="path96" /><text
             transform="translate(626.28125,449)"
             style="font-variant:normal;font-weight:bold;font-size:12px;font-family:Arial;-inkscape-font-specification:Arial-BoldMT;writing-mode:lr-tb;fill:#000000;fill-opacity:1;fill-rule:nonzero;stroke:none"
             id="text100"><tspan
               x="0 6.6738281 13.347656 20.021484 26.695312 34.025391 38.021484 41.355469 48.685547 56.015625 62.689453 69.363281 73.359375 80.033203 84.029297 90.703125 94.037109 101.04492 108.05273 111.38672 119.39062 126.06445 132.73828 139.41211 146.74219 150.73828"
               y="0"
               sodipodi:role="line"
               id="tspan98">execution_state == Execute</tspan></text></g><g
           id="g102"
           transform="matrix(2.8317995,0,0,2.8317995,-907.03412,-661.5611)"><path
             d="m 560,445 h 43.63"
             style="fill:none;stroke:#000000;stroke-width:1;stroke-linecap:butt;stroke-linejoin:miter;stroke-miterlimit:10;stroke-dasharray:none;stroke-opacity:1"
             id="path104" /><path
             d="m 608.88,445 -7,3.5 1.75,-3.5 -1.75,-3.5 z"
             style="fill:#000000;fill-opacity:1;fill-rule:nonzero;stroke:none"
             id="path106" /><path
             d="m 608.88,445 -7,3.5 1.75,-3.5 -1.75,-3.5 z"
             style="fill:none;stroke:#000000;stroke-width:1;stroke-linecap:butt;stroke-linejoin:miter;stroke-miterlimit:10;stroke-dasharray:none;stroke-opacity:1"
             id="path108" /></g><g
           id="g110"
           transform="matrix(2.8317995,0,0,2.8317995,-908.45001,-662.97699)"><path
             d="m 569,439 h 23 v 13 h -23 z"
             style="fill:#ffffff;fill-opacity:1;fill-rule:nonzero;stroke:none"
             id="path112" /><text
             transform="translate(569.1875,449)"
             style="font-variant:normal;font-weight:bold;font-size:11px;font-family:Arial;-inkscape-font-specification:Arial-BoldMT;writing-mode:lr-tb;fill:#000000;fill-opacity:1;fill-rule:nonzero;stroke:none"
             id="text116"><tspan
               x="0 6.7192383 12.836914 15.893066"
               y="0"
               sodipodi:role="line"
               id="tspan114">nein</tspan></text></g><g
           id="g118"
           transform="matrix(2.8317995,0,0,2.8317995,-907.03412,-661.5611)"><path
             d="m 945,480 v 13.63"
             style="fill:none;stroke:#000000;stroke-width:1;stroke-linecap:butt;stroke-linejoin:miter;stroke-miterlimit:10;stroke-dasharray:none;stroke-opacity:1"
             id="path120" /><path
             d="m 945,498.88 -3.5,-7 3.5,1.75 3.5,-1.75 z"
             style="fill:#000000;fill-opacity:1;fill-rule:nonzero;stroke:none"
             id="path122" /><path
             d="m 945,498.88 -3.5,-7 3.5,1.75 3.5,-1.75 z"
             style="fill:none;stroke:#000000;stroke-width:1;stroke-linecap:butt;stroke-linejoin:miter;stroke-miterlimit:10;stroke-dasharray:none;stroke-opacity:1"
             id="path124" /></g><g
           id="g126"
           transform="matrix(2.8317995,0,0,2.8317995,-908.45001,-662.97699)"><path
             d="m 945,410 95,35 -95,35 -95,-35 z"
             style="fill:#ffffff;fill-opacity:1;fill-rule:nonzero;stroke:none"
             id="path128" /><path
             d="m 945,410 95,35 -95,35 -95,-35 z"
             style="fill:none;stroke:#000000;stroke-width:1;stroke-linecap:butt;stroke-linejoin:miter;stroke-miterlimit:10;stroke-dasharray:none;stroke-opacity:1"
             id="path130" /><text
             transform="translate(860.95313,449)"
             style="font-variant:normal;font-weight:bold;font-size:12px;font-family:Arial;-inkscape-font-specification:Arial-BoldMT;writing-mode:lr-tb;fill:#000000;fill-opacity:1;fill-rule:nonzero;stroke:none"
             id="text134"><tspan
               x="0 6.6738281 13.347656 20.021484 26.695312 34.025391 38.021484 41.355469 48.685547 56.015625 62.689453 69.363281 73.359375 80.033203 84.029297 90.703125 94.037109 101.04492 108.05273 111.38672 120.05273 126.72656 133.40039 140.07422 144.07031 151.40039 158.73047"
               y="0"
               sodipodi:role="line"
               id="tspan132">execution_state == ResetLow</tspan></text></g><g
           id="g136"
           transform="matrix(2.8317995,0,0,2.8317995,-907.03412,-661.5611)"><path
             d="m 800,445 h 43.63"
             style="fill:none;stroke:#000000;stroke-width:1;stroke-linecap:butt;stroke-linejoin:miter;stroke-miterlimit:10;stroke-dasharray:none;stroke-opacity:1"
             id="path138" /><path
             d="m 848.88,445 -7,3.5 1.75,-3.5 -1.75,-3.5 z"
             style="fill:#000000;fill-opacity:1;fill-rule:nonzero;stroke:none"
             id="path140" /><path
             d="m 848.88,445 -7,3.5 1.75,-3.5 -1.75,-3.5 z"
             style="fill:none;stroke:#000000;stroke-width:1;stroke-linecap:butt;stroke-linejoin:miter;stroke-miterlimit:10;stroke-dasharray:none;stroke-opacity:1"
             id="path142" /></g><g
           id="g144"
           transform="matrix(2.8317995,0,0,2.8317995,-908.45001,-662.97699)"><path
             d="m 809,439 h 23 v 13 h -23 z"
             style="fill:#ffffff;fill-opacity:1;fill-rule:nonzero;stroke:none"
             id="path146" /><text
             transform="translate(809.1875,449)"
             style="font-variant:normal;font-weight:bold;font-size:11px;font-family:Arial;-inkscape-font-specification:Arial-BoldMT;writing-mode:lr-tb;fill:#000000;fill-opacity:1;fill-rule:nonzero;stroke:none"
             id="text150"><tspan
               x="0 6.7192383 12.836914 15.893066"
               y="0"
               sodipodi:role="line"
               id="tspan148">nein</tspan></text></g><g
           id="g152"
           transform="matrix(2.8317995,0,0,2.8317995,-907.03412,-661.5611)"><path
             d="m 1200,485 v 8.63"
             style="fill:none;stroke:#000000;stroke-width:1;stroke-linecap:butt;stroke-linejoin:miter;stroke-miterlimit:10;stroke-dasharray:none;stroke-opacity:1"
             id="path154" /><path
             d="m 1200,498.88 -3.5,-7 3.5,1.75 3.5,-1.75 z"
             style="fill:#000000;fill-opacity:1;fill-rule:nonzero;stroke:none"
             id="path156" /><path
             d="m 1200,498.88 -3.5,-7 3.5,1.75 3.5,-1.75 z"
             style="fill:none;stroke:#000000;stroke-width:1;stroke-linecap:butt;stroke-linejoin:miter;stroke-miterlimit:10;stroke-dasharray:none;stroke-opacity:1"
             id="path158" /></g><g
           id="g160"
           transform="matrix(2.8317995,0,0,2.8317995,-908.45001,-662.97699)"><path
             d="m 1200,405 110,40 -110,40 -110,-40 z"
             style="fill:#ffffff;fill-opacity:1;fill-rule:nonzero;stroke:none"
             id="path162" /><path
             d="m 1200,405 110,40 -110,40 -110,-40 z"
             style="fill:none;stroke:#000000;stroke-width:1;stroke-linecap:butt;stroke-linejoin:miter;stroke-miterlimit:10;stroke-dasharray:none;stroke-opacity:1"
             id="path164" /><text
             transform="translate(1105.2813,449)"
             style="font-variant:normal;font-weight:bold;font-size:12px;font-family:Arial;-inkscape-font-specification:Arial-BoldMT;writing-mode:lr-tb;fill:#000000;fill-opacity:1;fill-rule:nonzero;stroke:none"
             id="text168"><tspan
               x="0 6.6738281 13.347656 20.021484 26.695312 34.025391 38.021484 41.355469 48.685547 56.015625 62.689453 69.363281 73.359375 80.033203 84.029297 90.703125 94.037109 101.04492 108.05273 111.38672 118.7168 125.39062 129.38672 136.06055 143.39062 151.39453 158.06836 164.74219 171.41602 178.74609 182.74219"
               y="0"
               sodipodi:role="line"
               id="tspan166">execution_state == FetchExecute</tspan></text></g><g
           id="g170"
           transform="matrix(2.8317995,0,0,2.8317995,-907.03412,-661.5611)"><path
             d="m 1040,445 h 43.63"
             style="fill:none;stroke:#000000;stroke-width:1;stroke-linecap:butt;stroke-linejoin:miter;stroke-miterlimit:10;stroke-dasharray:none;stroke-opacity:1"
             id="path172" /><path
             d="m 1088.88,445 -7,3.5 1.75,-3.5 -1.75,-3.5 z"
             style="fill:#000000;fill-opacity:1;fill-rule:nonzero;stroke:none"
             id="path174" /><path
             d="m 1088.88,445 -7,3.5 1.75,-3.5 -1.75,-3.5 z"
             style="fill:none;stroke:#000000;stroke-width:1;stroke-linecap:butt;stroke-linejoin:miter;stroke-miterlimit:10;stroke-dasharray:none;stroke-opacity:1"
             id="path176" /></g><g
           id="g178"
           transform="matrix(2.8317995,0,0,2.8317995,-908.45001,-662.97699)"><path
             d="m 1049,439 h 23 v 13 h -23 z"
             style="fill:#ffffff;fill-opacity:1;fill-rule:nonzero;stroke:none"
             id="path180" /><text
             transform="translate(1049.1875,449)"
             style="font-variant:normal;font-weight:bold;font-size:11px;font-family:Arial;-inkscape-font-specification:Arial-BoldMT;writing-mode:lr-tb;fill:#000000;fill-opacity:1;fill-rule:nonzero;stroke:none"
             id="text184"><tspan
               x="0 6.7192383 12.836914 15.893066"
               y="0"
               sodipodi:role="line"
               id="tspan182">nein</tspan></text></g><g
           id="g186"
           transform="matrix(2.8317995,0,0,2.8317995,-907.03412,-661.5611)"><path
             d="m 371,930 h 188 c 0.39392,0 0.78412,0.0384 1.17053,0.11523 0.38642,0.0769 0.7616,0.19062 1.12555,0.34144 0.36395,0.15081 0.70972,0.33563 1.03729,0.55444 0.32758,0.21887 0.63062,0.46759 0.90924,0.74621 0.27857,0.27857 0.52729,0.58161 0.74616,0.90918 0.21881,0.32752 0.40363,0.67328 0.55438,1.0373 0.15076,0.36395 0.26459,0.73913 0.34149,1.12555 0.0769,0.38641 0.1153,0.77667 0.11536,1.17065 v 28 c -6e-5,0.39392 -0.0385,0.78406 -0.11536,1.17041 -0.0769,0.38647 -0.19073,0.76166 -0.34149,1.12561 -0.15075,0.36395 -0.33557,0.70972 -0.55438,1.03729 -0.21887,0.32758 -0.46759,0.63062 -0.74616,0.90924 -0.27862,0.27863 -0.58166,0.52735 -0.90924,0.74622 -0.32757,0.21887 -0.67334,0.40369 -1.03729,0.55438 -0.36395,0.15076 -0.73913,0.26459 -1.12555,0.34143 C 559.78412,969.96138 559.39392,969.99994 559,970 H 371 c -0.39395,-6e-5 -0.78415,-0.0386 -1.17056,-0.11542 -0.38639,-0.0768 -0.7616,-0.19067 -1.12558,-0.34143 -0.36399,-0.15069 -0.70975,-0.33551 -1.03733,-0.55444 -0.32754,-0.21881 -0.63058,-0.46753 -0.90918,-0.74616 -0.27856,-0.27862 -0.52731,-0.58166 -0.74621,-0.90924 -0.21884,-0.32763 -0.40366,-0.6734 -0.55444,-1.03735 -0.15076,-0.36395 -0.26456,-0.73914 -0.34144,-1.12549 C 365.03842,964.78406 365,964.39392 365,964 v -28 c 0,-0.39398 0.0384,-0.78424 0.11526,-1.17065 0.0769,-0.38642 0.19068,-0.7616 0.34144,-1.12555 0.15078,-0.36402 0.3356,-0.70978 0.55444,-1.0373 0.2189,-0.32757 0.46765,-0.63061 0.74621,-0.90918 0.2786,-0.27862 0.58164,-0.52734 0.90918,-0.74627 0.32758,-0.21881 0.67334,-0.40357 1.03733,-0.55438 0.36398,-0.15082 0.73919,-0.26459 1.12558,-0.34144 C 370.21585,930.03839 370.60605,930 371,930 Z"
             style="fill:#d5e8d4;fill-opacity:1;fill-rule:nonzero;stroke:none"
             id="path188" /><path
             d="m 371,930 h 188 c 0.39392,0 0.78412,0.0384 1.17053,0.11523 0.38642,0.0769 0.7616,0.19062 1.12555,0.34144 0.36395,0.15081 0.70972,0.33563 1.03729,0.55444 0.32758,0.21887 0.63062,0.46759 0.90924,0.74621 0.27857,0.27857 0.52729,0.58161 0.74616,0.90918 0.21881,0.32752 0.40363,0.67328 0.55438,1.0373 0.15076,0.36395 0.26459,0.73913 0.34149,1.12555 0.0769,0.38641 0.1153,0.77667 0.11536,1.17065 v 28 c -6e-5,0.39392 -0.0385,0.78406 -0.11536,1.17041 -0.0769,0.38647 -0.19073,0.76166 -0.34149,1.12561 -0.15075,0.36395 -0.33557,0.70972 -0.55438,1.03729 -0.21887,0.32758 -0.46759,0.63062 -0.74616,0.90924 -0.27862,0.27863 -0.58166,0.52735 -0.90924,0.74622 -0.32757,0.21887 -0.67334,0.40369 -1.03729,0.55438 -0.36395,0.15076 -0.73913,0.26459 -1.12555,0.34143 C 559.78412,969.96138 559.39392,969.99994 559,970 H 371 c -0.39395,-6e-5 -0.78415,-0.0386 -1.17056,-0.11542 -0.38639,-0.0768 -0.7616,-0.19067 -1.12558,-0.34143 -0.36399,-0.15069 -0.70975,-0.33551 -1.03733,-0.55444 -0.32754,-0.21881 -0.63058,-0.46753 -0.90918,-0.74616 -0.27856,-0.27862 -0.52731,-0.58166 -0.74621,-0.90924 -0.21884,-0.32763 -0.40366,-0.6734 -0.55444,-1.03735 -0.15076,-0.36395 -0.26456,-0.73914 -0.34144,-1.12549 C 365.03842,964.78406 365,964.39392 365,964 v -28 c 0,-0.39398 0.0384,-0.78424 0.11526,-1.17065 0.0769,-0.38642 0.19068,-0.7616 0.34144,-1.12555 0.15078,-0.36402 0.3356,-0.70978 0.55444,-1.0373 0.2189,-0.32757 0.46765,-0.63061 0.74621,-0.90918 0.2786,-0.27862 0.58164,-0.52734 0.90918,-0.74627 0.32758,-0.21881 0.67334,-0.40357 1.03733,-0.55438 0.36398,-0.15082 0.73919,-0.26459 1.12558,-0.34144 C 370.21585,930.03839 370.60605,930 371,930 Z"
             style="fill:none;stroke:#82b366;stroke-width:1;stroke-linecap:butt;stroke-linejoin:miter;stroke-miterlimit:10;stroke-dasharray:none;stroke-opacity:1"
             id="path190" /></g><g
           id="g192"
           transform="matrix(2.8317995,0,0,2.8317995,-908.45001,-662.97699)"><text
             transform="translate(374.10938,954)"
             style="font-variant:normal;font-weight:bold;font-size:12px;font-family:Arial;-inkscape-font-specification:Arial-BoldMT;writing-mode:lr-tb;fill:#000000;fill-opacity:1;fill-rule:nonzero;stroke:none"
             id="text196"><tspan
               x="0 7.3300781 14.003906 20.677734 24.673828 31.347656 38.021484 44.695312 51.369141 58.042969 65.373047 69.369141 72.703125 80.033203 87.363281 94.037109 100.71094 104.70703 111.38086 115.37695 122.05078 125.38477 132.39258 135.72656 143.73047 150.4043 157.07812 163.75195 171.08203 175.07812"
               y="0"
               sodipodi:role="line"
               id="tspan194">next_execution_state = Execute</tspan></text></g><g
           id="g198"
           transform="matrix(2.8317995,0,0,2.8317995,-907.03412,-661.5611)"><path
             d="m 613.5,930 h 188 c 0.39392,0 0.78412,0.0384 1.17053,0.11523 0.38635,0.0769 0.76154,0.19062 1.12549,0.34144 0.36395,0.15081 0.70978,0.33563 1.03735,0.55444 0.32752,0.21887 0.63062,0.46759 0.90924,0.74621 0.27857,0.27857 0.52729,0.58161 0.74616,0.90918 0.21881,0.32752 0.40363,0.67328 0.55444,1.0373 0.15082,0.36395 0.26459,0.73913 0.34143,1.12555 0.0769,0.38641 0.11536,0.77667 0.11536,1.17065 v 28 c 0,0.39392 -0.0385,0.78406 -0.1153,1.17041 -0.0768,0.38647 -0.19067,0.76166 -0.34149,1.12561 -0.15081,0.36395 -0.33557,0.70972 -0.55438,1.03729 -0.21893,0.32758 -0.46765,0.63062 -0.74622,0.90924 -0.27862,0.27863 -0.58172,0.52735 -0.90924,0.74622 -0.32757,0.21887 -0.6734,0.40369 -1.03735,0.55438 -0.36395,0.15076 -0.73914,0.26459 -1.12549,0.34143 -0.38641,0.0768 -0.77661,0.11536 -1.17053,0.11542 h -188 c -0.39398,-6e-5 -0.78412,-0.0386 -1.17053,-0.11542 -0.38642,-0.0768 -0.7616,-0.19067 -1.12561,-0.34143 -0.36396,-0.15069 -0.70978,-0.33551 -1.03736,-0.55444 -0.32757,-0.21881 -0.63061,-0.46753 -0.90918,-0.74616 -0.27862,-0.27862 -0.52734,-0.58166 -0.74621,-0.90924 -0.21887,-0.32763 -0.40369,-0.6734 -0.55444,-1.03735 -0.15076,-0.36395 -0.26453,-0.73914 -0.34137,-1.12549 C 607.53845,964.78406 607.5,964.39392 607.5,964 v -28 c 0,-0.39398 0.0385,-0.78424 0.1153,-1.17065 0.0768,-0.38642 0.19061,-0.7616 0.34137,-1.12555 0.15075,-0.36402 0.33557,-0.70978 0.55444,-1.0373 0.21887,-0.32757 0.46759,-0.63061 0.74621,-0.90918 0.27857,-0.27862 0.58161,-0.52734 0.90918,-0.74627 0.32758,-0.21881 0.6734,-0.40357 1.03736,-0.55438 0.36401,-0.15082 0.73919,-0.26459 1.12561,-0.34144 C 612.71588,930.03839 613.10602,930 613.5,930 Z"
             style="fill:#d5e8d4;fill-opacity:1;fill-rule:nonzero;stroke:none"
             id="path200" /><path
             d="m 613.5,930 h 188 c 0.39392,0 0.78412,0.0384 1.17053,0.11523 0.38635,0.0769 0.76154,0.19062 1.12549,0.34144 0.36395,0.15081 0.70978,0.33563 1.03735,0.55444 0.32752,0.21887 0.63062,0.46759 0.90924,0.74621 0.27857,0.27857 0.52729,0.58161 0.74616,0.90918 0.21881,0.32752 0.40363,0.67328 0.55444,1.0373 0.15082,0.36395 0.26459,0.73913 0.34143,1.12555 0.0769,0.38641 0.11536,0.77667 0.11536,1.17065 v 28 c 0,0.39392 -0.0385,0.78406 -0.1153,1.17041 -0.0768,0.38647 -0.19067,0.76166 -0.34149,1.12561 -0.15081,0.36395 -0.33557,0.70972 -0.55438,1.03729 -0.21893,0.32758 -0.46765,0.63062 -0.74622,0.90924 -0.27862,0.27863 -0.58172,0.52735 -0.90924,0.74622 -0.32757,0.21887 -0.6734,0.40369 -1.03735,0.55438 -0.36395,0.15076 -0.73914,0.26459 -1.12549,0.34143 -0.38641,0.0768 -0.77661,0.11536 -1.17053,0.11542 h -188 c -0.39398,-6e-5 -0.78412,-0.0386 -1.17053,-0.11542 -0.38642,-0.0768 -0.7616,-0.19067 -1.12561,-0.34143 -0.36396,-0.15069 -0.70978,-0.33551 -1.03736,-0.55444 -0.32757,-0.21881 -0.63061,-0.46753 -0.90918,-0.74616 -0.27862,-0.27862 -0.52734,-0.58166 -0.74621,-0.90924 -0.21887,-0.32763 -0.40369,-0.6734 -0.55444,-1.03735 -0.15076,-0.36395 -0.26453,-0.73914 -0.34137,-1.12549 C 607.53845,964.78406 607.5,964.39392 607.5,964 v -28 c 0,-0.39398 0.0385,-0.78424 0.1153,-1.17065 0.0768,-0.38642 0.19061,-0.7616 0.34137,-1.12555 0.15075,-0.36402 0.33557,-0.70978 0.55444,-1.0373 0.21887,-0.32757 0.46759,-0.63061 0.74621,-0.90918 0.27857,-0.27862 0.58161,-0.52734 0.90918,-0.74627 0.32758,-0.21881 0.6734,-0.40357 1.03736,-0.55438 0.36401,-0.15082 0.73919,-0.26459 1.12561,-0.34144 C 612.71588,930.03839 613.10602,930 613.5,930 Z"
             style="fill:none;stroke:#82b366;stroke-width:1;stroke-linecap:butt;stroke-linejoin:miter;stroke-miterlimit:10;stroke-dasharray:none;stroke-opacity:1"
             id="path202" /></g><g
           id="g204"
           transform="matrix(2.8317995,0,0,2.8317995,-908.45001,-662.97699)"><text
             transform="translate(624.125,954)"
             style="font-variant:normal;font-weight:bold;font-size:12px;font-family:Arial;-inkscape-font-specification:Arial-BoldMT;writing-mode:lr-tb;fill:#000000;fill-opacity:1;fill-rule:nonzero;stroke:none"
             id="text208"><tspan
               x="0 7.3300781 14.003906 20.677734 24.673828 31.347656 38.021484 44.695312 51.369141 58.042969 65.373047 69.369141 72.703125 80.033203 87.363281 94.037109 100.71094 104.70703 111.38086 115.37695 122.05078 125.38477 132.39258 135.72656 143.05664 149.73047 153.72656 160.40039"
               y="0"
               sodipodi:role="line"
               id="tspan206">next_execution_state = Fetch</tspan></text></g><g
           id="g210"
           transform="matrix(2.8317995,0,0,2.8317995,-907.03412,-661.5611)"><path
             d="M 465,560 V 923.63"
             style="fill:none;stroke:#000000;stroke-width:1;stroke-linecap:butt;stroke-linejoin:miter;stroke-miterlimit:10;stroke-dasharray:none;stroke-opacity:1"
             id="path212" /><path
             d="m 465,928.88 -3.5,-7 3.5,1.75 3.5,-1.75 z"
             style="fill:#000000;fill-opacity:1;fill-rule:nonzero;stroke:none"
             id="path214" /><path
             d="m 465,928.88 -3.5,-7 3.5,1.75 3.5,-1.75 z"
             style="fill:none;stroke:#000000;stroke-width:1;stroke-linecap:butt;stroke-linejoin:miter;stroke-miterlimit:10;stroke-dasharray:none;stroke-opacity:1"
             id="path216" /><path
             d="m 414,500 h 102 c 0.59088,3e-5 1.17615,0.0577 1.75574,0.17294 0.57965,0.1153 1.14245,0.28601 1.68841,0.51212 0.54596,0.22613 1.06458,0.50336 1.55597,0.83166 0.49134,0.32831 0.94592,0.70139 1.36383,1.11927 0.41785,0.41787 0.79096,0.87246 1.11927,1.36383 0.3283,0.49136 0.60553,1.01001 0.83166,1.55597 0.22614,0.54599 0.39685,1.10876 0.51215,1.68835 0.11529,0.57962 0.17291,1.16489 0.17297,1.75586 v 42 c -6e-5,0.59094 -0.0577,1.17615 -0.17297,1.75568 -0.1153,0.57965 -0.28601,1.14245 -0.51215,1.68841 -0.22613,0.54596 -0.50336,1.06464 -0.83166,1.55597 -0.32831,0.4914 -0.70142,0.94598 -1.11927,1.36389 -0.41791,0.41779 -0.87249,0.7909 -1.36389,1.11927 -0.49133,0.32824 -1.01001,0.60546 -1.55597,0.8316 -0.54596,0.22613 -1.10876,0.39685 -1.68835,0.51221 C 517.17615,559.94232 516.59088,560 516,560 H 414 c -0.59094,0 -1.17621,-0.0577 -1.75583,-0.17297 -0.57962,-0.11536 -1.14239,-0.28608 -1.68835,-0.51221 -0.54599,-0.22614 -1.06464,-0.50336 -1.556,-0.83167 -0.49137,-0.3283 -0.94596,-0.70141 -1.3638,-1.1192 -0.41788,-0.41791 -0.79096,-0.87249 -1.11927,-1.36389 -0.32833,-0.49133 -0.60556,-1.01001 -0.83172,-1.55597 -0.22614,-0.54596 -0.39685,-1.10876 -0.51212,-1.68841 C 405.05762,552.17615 404.99997,551.59094 405,551 v -42 c -3e-5,-0.59097 0.0576,-1.17624 0.17291,-1.75586 0.11527,-0.57959 0.28598,-1.14236 0.51212,-1.68835 0.22616,-0.54596 0.50339,-1.06461 0.83169,-1.55597 0.32834,-0.49137 0.70142,-0.94596 1.1193,-1.36383 0.41784,-0.41788 0.87243,-0.79096 1.3638,-1.11927 0.49136,-0.3283 1.01001,-0.60553 1.556,-0.83166 0.54596,-0.22611 1.10873,-0.39682 1.68835,-0.51212 C 412.82379,500.05768 413.40906,500.00003 414,500 Z"
             style="fill:#ffffff;fill-opacity:1;fill-rule:nonzero;stroke:none"
             id="path218" /><path
             d="m 414,500 h 102 c 0.59088,3e-5 1.17615,0.0577 1.75574,0.17294 0.57965,0.1153 1.14245,0.28601 1.68841,0.51212 0.54596,0.22613 1.06458,0.50336 1.55597,0.83166 0.49134,0.32831 0.94592,0.70139 1.36383,1.11927 0.41785,0.41787 0.79096,0.87246 1.11927,1.36383 0.3283,0.49136 0.60553,1.01001 0.83166,1.55597 0.22614,0.54599 0.39685,1.10876 0.51215,1.68835 0.11529,0.57962 0.17291,1.16489 0.17297,1.75586 v 42 c -6e-5,0.59094 -0.0577,1.17615 -0.17297,1.75568 -0.1153,0.57965 -0.28601,1.14245 -0.51215,1.68841 -0.22613,0.54596 -0.50336,1.06464 -0.83166,1.55597 -0.32831,0.4914 -0.70142,0.94598 -1.11927,1.36389 -0.41791,0.41779 -0.87249,0.7909 -1.36389,1.11927 -0.49133,0.32824 -1.01001,0.60546 -1.55597,0.8316 -0.54596,0.22613 -1.10876,0.39685 -1.68835,0.51221 C 517.17615,559.94232 516.59088,560 516,560 H 414 c -0.59094,0 -1.17621,-0.0577 -1.75583,-0.17297 -0.57962,-0.11536 -1.14239,-0.28608 -1.68835,-0.51221 -0.54599,-0.22614 -1.06464,-0.50336 -1.556,-0.83167 -0.49137,-0.3283 -0.94596,-0.70141 -1.3638,-1.1192 -0.41788,-0.41791 -0.79096,-0.87249 -1.11927,-1.36389 -0.32833,-0.49133 -0.60556,-1.01001 -0.83172,-1.55597 -0.22614,-0.54596 -0.39685,-1.10876 -0.51212,-1.68841 C 405.05762,552.17615 404.99997,551.59094 405,551 v -42 c -3e-5,-0.59097 0.0576,-1.17624 0.17291,-1.75586 0.11527,-0.57959 0.28598,-1.14236 0.51212,-1.68835 0.22616,-0.54596 0.50339,-1.06461 0.83169,-1.55597 0.32834,-0.49137 0.70142,-0.94596 1.1193,-1.36383 0.41784,-0.41788 0.87243,-0.79096 1.3638,-1.11927 0.49136,-0.3283 1.01001,-0.60553 1.556,-0.83166 0.54596,-0.22611 1.10873,-0.39682 1.68835,-0.51212 C 412.82379,500.05768 413.40906,500.00003 414,500 Z"
             style="fill:none;stroke:#000000;stroke-width:1;stroke-linecap:butt;stroke-linejoin:miter;stroke-miterlimit:10;stroke-dasharray:none;stroke-opacity:1"
             id="path220" /></g><g
           id="g222"
           transform="matrix(2.8317995,0,0,2.8317995,-908.45001,-662.97699)"><text
             transform="translate(417.98438,527)"
             style="font-variant:normal;font-weight:bold;font-size:12px;font-family:Arial;-inkscape-font-specification:Arial-BoldMT;writing-mode:lr-tb;fill:#000000;fill-opacity:1;fill-rule:nonzero;stroke:none"
             id="text226"><tspan
               x="0 8.6660156 15.339844 22.013672 29.34375 36.017578 40.013672 46.6875 54.017578 57.351562 66.017578 72.691406 76.6875 83.361328 90.691406"
               y="0"
               sodipodi:role="line"
               id="tspan224">Nächsten Befehl</tspan></text><text
             transform="translate(443.65625,542)"
             style="font-variant:normal;font-weight:bold;font-size:12px;font-family:Arial;-inkscape-font-specification:Arial-BoldMT;writing-mode:lr-tb;fill:#000000;fill-opacity:1;fill-rule:nonzero;stroke:none"
             id="text230"><tspan
               x="0 3.9960938 10.669922 14.666016 21.339844 28.669922 35.34375"
               y="0"
               sodipodi:role="line"
               id="tspan228">fetchen</tspan></text></g><g
           id="g232"
           transform="matrix(2.8317995,0,0,2.8317995,-907.03412,-661.5611)"><path
             d="m 654,500 h 102 c 0.59094,3e-5 1.17621,0.0577 1.7558,0.17294 0.57959,0.1153 1.14233,0.28601 1.68829,0.51212 0.54596,0.22613 1.06458,0.50336 1.55597,0.83166 0.49133,0.32831 0.94598,0.70139 1.36389,1.11927 0.41785,0.41787 0.7909,0.87246 1.1192,1.36383 0.32831,0.49136 0.6056,1.01001 0.83173,1.55597 0.22614,0.54599 0.39685,1.10876 0.51215,1.68835 C 764.94232,507.82376 765,508.40903 765,509 v 42 c 0,0.59094 -0.0576,1.17615 -0.17291,1.75568 -0.1153,0.57965 -0.28607,1.14245 -0.51221,1.68841 -0.22613,0.54596 -0.50342,1.06464 -0.83173,1.55597 -0.3283,0.4914 -0.70135,0.94598 -1.1192,1.36389 -0.41791,0.41779 -0.87256,0.7909 -1.36389,1.11927 -0.49139,0.32824 -1.01001,0.60546 -1.55597,0.8316 -0.54596,0.22613 -1.1087,0.39685 -1.68835,0.51221 C 757.17621,559.94232 756.59094,560 756,560 H 654 c -0.591,0 -1.17627,-0.0577 -1.75586,-0.17297 -0.57959,-0.11536 -1.14239,-0.28608 -1.68835,-0.51221 -0.54596,-0.22614 -1.06458,-0.50336 -1.55597,-0.83167 -0.4914,-0.3283 -0.94599,-0.70141 -1.36383,-1.1192 -0.41785,-0.41791 -0.79096,-0.87249 -1.11927,-1.36389 -0.3283,-0.49133 -0.60559,-1.01001 -0.83172,-1.55597 -0.22614,-0.54596 -0.39679,-1.10876 -0.51209,-1.68841 C 645.05762,552.17615 644.99994,551.59094 645,551 v -42 c -6e-5,-0.59097 0.0576,-1.17624 0.17291,-1.75586 0.1153,-0.57959 0.28595,-1.14236 0.51209,-1.68835 0.22613,-0.54596 0.50342,-1.06461 0.83172,-1.55597 0.32831,-0.49137 0.70142,-0.94596 1.11927,-1.36383 0.41784,-0.41788 0.87243,-0.79096 1.36383,-1.11927 0.49139,-0.3283 1.01001,-0.60553 1.55597,-0.83166 0.54596,-0.22611 1.10876,-0.39682 1.68835,-0.51212 C 652.82373,500.05768 653.409,500.00003 654,500 Z"
             style="fill:#ffffff;fill-opacity:1;fill-rule:nonzero;stroke:none"
             id="path234" /><path
             d="m 654,500 h 102 c 0.59094,3e-5 1.17621,0.0577 1.7558,0.17294 0.57959,0.1153 1.14233,0.28601 1.68829,0.51212 0.54596,0.22613 1.06458,0.50336 1.55597,0.83166 0.49133,0.32831 0.94598,0.70139 1.36389,1.11927 0.41785,0.41787 0.7909,0.87246 1.1192,1.36383 0.32831,0.49136 0.6056,1.01001 0.83173,1.55597 0.22614,0.54599 0.39685,1.10876 0.51215,1.68835 C 764.94232,507.82376 765,508.40903 765,509 v 42 c 0,0.59094 -0.0576,1.17615 -0.17291,1.75568 -0.1153,0.57965 -0.28607,1.14245 -0.51221,1.68841 -0.22613,0.54596 -0.50342,1.06464 -0.83173,1.55597 -0.3283,0.4914 -0.70135,0.94598 -1.1192,1.36389 -0.41791,0.41779 -0.87256,0.7909 -1.36389,1.11927 -0.49139,0.32824 -1.01001,0.60546 -1.55597,0.8316 -0.54596,0.22613 -1.1087,0.39685 -1.68835,0.51221 C 757.17621,559.94232 756.59094,560 756,560 H 654 c -0.591,0 -1.17627,-0.0577 -1.75586,-0.17297 -0.57959,-0.11536 -1.14239,-0.28608 -1.68835,-0.51221 -0.54596,-0.22614 -1.06458,-0.50336 -1.55597,-0.83167 -0.4914,-0.3283 -0.94599,-0.70141 -1.36383,-1.1192 -0.41785,-0.41791 -0.79096,-0.87249 -1.11927,-1.36389 -0.3283,-0.49133 -0.60559,-1.01001 -0.83172,-1.55597 -0.22614,-0.54596 -0.39679,-1.10876 -0.51209,-1.68841 C 645.05762,552.17615 644.99994,551.59094 645,551 v -42 c -6e-5,-0.59097 0.0576,-1.17624 0.17291,-1.75586 0.1153,-0.57959 0.28595,-1.14236 0.51209,-1.68835 0.22613,-0.54596 0.50342,-1.06461 0.83172,-1.55597 0.32831,-0.49137 0.70142,-0.94596 1.11927,-1.36383 0.41784,-0.41788 0.87243,-0.79096 1.36383,-1.11927 0.49139,-0.3283 1.01001,-0.60553 1.55597,-0.83166 0.54596,-0.22611 1.10876,-0.39682 1.68835,-0.51212 C 652.82373,500.05768 653.409,500.00003 654,500 Z"
             style="fill:none;stroke:#000000;stroke-width:1;stroke-linecap:butt;stroke-linejoin:miter;stroke-miterlimit:10;stroke-dasharray:none;stroke-opacity:1"
             id="path236" /></g><g
           id="g238"
           transform="matrix(2.8317995,0,0,2.8317995,-908.45001,-662.97699)"><text
             transform="translate(656.65625,527)"
             style="font-variant:normal;font-weight:bold;font-size:12px;font-family:Arial;-inkscape-font-specification:Arial-BoldMT;writing-mode:lr-tb;fill:#000000;fill-opacity:1;fill-rule:nonzero;stroke:none"
             id="text242"><tspan
               x="0 9.9960938 13.330078 20.003906 24.673828 32.003906 38.677734 46.007812 53.337891 60.011719 66.685547 73.359375 80.689453 85.359375 88.693359 92.689453"
               y="0"
               sodipodi:role="line"
               id="tspan240">Microcodeschritt</tspan></text><text
             transform="translate(675.98438,542)"
             style="font-variant:normal;font-weight:bold;font-size:12px;font-family:Arial;-inkscape-font-specification:Arial-BoldMT;writing-mode:lr-tb;fill:#000000;fill-opacity:1;fill-rule:nonzero;stroke:none"
             id="text246"><tspan
               x="0 6.6738281 14.003906 20.677734 24.673828 32.003906 39.333984 44.003906 50.677734"
               y="0"
               sodipodi:role="line"
               id="tspan244">ausführen</tspan></text></g><g
           id="g248"
           transform="matrix(2.8317995,0,0,2.8317995,-907.03412,-661.5611)"><path
             d="m 630,630 -82,0.5 v 1 l -76.63,-0.46002"
             style="fill:none;stroke:#000000;stroke-width:1;stroke-linecap:butt;stroke-linejoin:miter;stroke-miterlimit:10;stroke-dasharray:none;stroke-opacity:1"
             id="path250" /><path
             d="m 466.12,631.01001 7.02001,-3.46002 -1.77001,3.48999 1.73001,3.51001 z"
             style="fill:#000000;fill-opacity:1;fill-rule:nonzero;stroke:none"
             id="path252" /><path
             d="m 466.12,631.01001 7.02001,-3.46002 -1.77001,3.48999 1.73001,3.51001 z"
             style="fill:none;stroke:#000000;stroke-width:1;stroke-linecap:butt;stroke-linejoin:miter;stroke-miterlimit:10;stroke-dasharray:none;stroke-opacity:1"
             id="path254" /></g><g
           id="g256"
           transform="matrix(2.8317995,0,0,2.8317995,-908.45001,-662.97699)"><path
             d="m 599,624 h 23 v 13 h -23 z"
             style="fill:#ffffff;fill-opacity:1;fill-rule:nonzero;stroke:none"
             id="path258" /><text
             transform="translate(599.1875,634)"
             style="font-variant:normal;font-weight:bold;font-size:11px;font-family:Arial;-inkscape-font-specification:Arial-BoldMT;writing-mode:lr-tb;fill:#000000;fill-opacity:1;fill-rule:nonzero;stroke:none"
             id="text262"><tspan
               x="0 6.7192383 12.836914 15.893066"
               y="0"
               sodipodi:role="line"
               id="tspan260">nein</tspan></text></g><g
           id="g264"
           transform="matrix(2.8317995,0,0,2.8317995,-907.03412,-661.5611)"><path
             d="m 705,560 h 2.5 v 23.63"
             style="fill:none;stroke:#000000;stroke-width:1;stroke-linecap:butt;stroke-linejoin:miter;stroke-miterlimit:10;stroke-dasharray:none;stroke-opacity:1"
             id="path266" /><path
             d="m 707.5,588.88 -3.5,-7 3.5,1.75 3.5,-1.75 z"
             style="fill:#000000;fill-opacity:1;fill-rule:nonzero;stroke:none"
             id="path268" /><path
             d="m 707.5,588.88 -3.5,-7 3.5,1.75 3.5,-1.75 z"
             style="fill:none;stroke:#000000;stroke-width:1;stroke-linecap:butt;stroke-linejoin:miter;stroke-miterlimit:10;stroke-dasharray:none;stroke-opacity:1"
             id="path270" /></g><g
           id="g272"
           transform="matrix(2.8317995,0,0,2.8317995,-908.45001,-662.97699)"><path
             d="M 707.5,590 785,630 707.5,670 630,630 Z"
             style="fill:#ffffff;fill-opacity:1;fill-rule:nonzero;stroke:none"
             id="path274" /><path
             d="M 707.5,590 785,630 707.5,670 630,630 Z"
             style="fill:none;stroke:#000000;stroke-width:1;stroke-linecap:butt;stroke-linejoin:miter;stroke-miterlimit:10;stroke-dasharray:none;stroke-opacity:1"
             id="path276" /><text
             transform="translate(654.70313,627)"
             style="font-variant:normal;font-weight:bold;font-size:12px;font-family:Arial;-inkscape-font-specification:Arial-BoldMT;writing-mode:lr-tb;fill:#000000;fill-opacity:1;fill-rule:nonzero;stroke:none"
             id="text280"><tspan
               x="0 10.880859 17.554688 22.224609 25.558594 28.892578 35.566406 39.5625 45.5625 49.558594 56.232422 60.902344 64.236328 71.566406 78.240234 84.914062 88.248047 95.578125 102.25195"
               y="0"
               sodipodi:role="line"
               id="tspan278">War letzter Zyklus </tspan></text><text
             transform="translate(670.14063,642)"
             style="font-variant:normal;font-weight:bold;font-size:12px;font-family:Arial;-inkscape-font-specification:Arial-BoldMT;writing-mode:lr-tb;fill:#000000;fill-opacity:1;fill-rule:nonzero;stroke:none"
             id="text284"><tspan
               x="0 7.3300781 14.003906 20.677734 24.011719 32.677734 39.351562 43.347656 50.021484 57.351562 60.685547 67.359375"
               y="0"
               sodipodi:role="line"
               id="tspan282">des Befehls?</tspan></text></g><g
           id="g286"
           transform="matrix(2.8317995,0,0,2.8317995,-907.03412,-661.5611)"><path
             d="m 785,750 h 55 V 900 H 707.5 v 23.63"
             style="fill:none;stroke:#000000;stroke-width:1;stroke-linecap:butt;stroke-linejoin:miter;stroke-miterlimit:10;stroke-dasharray:none;stroke-opacity:1"
             id="path288" /><path
             d="m 707.5,928.88 -3.5,-7 3.5,1.75 3.5,-1.75 z"
             style="fill:#000000;fill-opacity:1;fill-rule:nonzero;stroke:none"
             id="path290" /><path
             d="m 707.5,928.88 -3.5,-7 3.5,1.75 3.5,-1.75 z"
             style="fill:none;stroke:#000000;stroke-width:1;stroke-linecap:butt;stroke-linejoin:miter;stroke-miterlimit:10;stroke-dasharray:none;stroke-opacity:1"
             id="path292" /></g><g
           id="g294"
           transform="matrix(2.8317995,0,0,2.8317995,-908.45001,-662.97699)"><path
             d="m 796,744 h 9 v 13 h -9 z"
             style="fill:#ffffff;fill-opacity:1;fill-rule:nonzero;stroke:none"
             id="path296" /><text
             transform="translate(795.90625,754)"
             style="font-variant:normal;font-weight:bold;font-size:11px;font-family:Arial;-inkscape-font-specification:Arial-BoldMT;writing-mode:lr-tb;fill:#000000;fill-opacity:1;fill-rule:nonzero;stroke:none"
             id="text300"><tspan
               x="0 3.0561523"
               y="0"
               sodipodi:role="line"
               id="tspan298">ja</tspan></text></g><g
           id="g302"
           transform="matrix(2.8317995,0,0,2.8317995,-907.03412,-661.5611)"><path
             d="m 707.5,790 v 43.63"
             style="fill:none;stroke:#000000;stroke-width:1;stroke-linecap:butt;stroke-linejoin:miter;stroke-miterlimit:10;stroke-dasharray:none;stroke-opacity:1"
             id="path304" /><path
             d="m 707.5,838.88 -3.5,-7 3.5,1.75 3.5,-1.75 z"
             style="fill:#000000;fill-opacity:1;fill-rule:nonzero;stroke:none"
             id="path306" /><path
             d="m 707.5,838.88 -3.5,-7 3.5,1.75 3.5,-1.75 z"
             style="fill:none;stroke:#000000;stroke-width:1;stroke-linecap:butt;stroke-linejoin:miter;stroke-miterlimit:10;stroke-dasharray:none;stroke-opacity:1"
             id="path308" /></g><g
           id="g310"
           transform="matrix(2.8317995,0,0,2.8317995,-908.45001,-662.97699)"><path
             d="m 696,796 h 23 v 13 h -23 z"
             style="fill:#ffffff;fill-opacity:1;fill-rule:nonzero;stroke:none"
             id="path312" /><text
             transform="translate(696.1875,806)"
             style="font-variant:normal;font-weight:bold;font-size:11px;font-family:Arial;-inkscape-font-specification:Arial-BoldMT;writing-mode:lr-tb;fill:#000000;fill-opacity:1;fill-rule:nonzero;stroke:none"
             id="text316"><tspan
               x="0 6.7192383 12.836914 15.893066"
               y="0"
               sodipodi:role="line"
               id="tspan314">nein</tspan></text><path
             d="M 707.5,710 785,750 707.5,790 630,750 Z"
             style="fill:#ffffff;fill-opacity:1;fill-rule:nonzero;stroke:none"
             id="path318" /><path
             d="M 707.5,710 785,750 707.5,790 630,750 Z"
             style="fill:none;stroke:#000000;stroke-width:1;stroke-linecap:butt;stroke-linejoin:miter;stroke-miterlimit:10;stroke-dasharray:none;stroke-opacity:1"
             id="path320" /><text
             transform="translate(650.70313,754)"
             style="font-variant:normal;font-weight:bold;font-size:12px;font-family:Arial;-inkscape-font-specification:Arial-BoldMT;writing-mode:lr-tb;fill:#000000;fill-opacity:1;fill-rule:nonzero;stroke:none"
             id="text324"><tspan
               x="0 10.880859 17.554688 22.224609 25.558594 33.5625 40.236328 47.566406 52.236328 58.910156 62.244141 69.574219 75.574219 82.248047 88.921875 92.255859 99.585938 106.25977"
               y="0"
               sodipodi:role="line"
               id="tspan322">War Schreibzyklus?</tspan></text></g><g
           id="g326"
           transform="matrix(2.8317995,0,0,2.8317995,-907.03412,-661.5611)"><path
             d="m 707.5,670 v 33.63"
             style="fill:none;stroke:#000000;stroke-width:1;stroke-linecap:butt;stroke-linejoin:miter;stroke-miterlimit:10;stroke-dasharray:none;stroke-opacity:1"
             id="path328" /><path
             d="m 707.5,708.88 -3.5,-7 3.5,1.75 3.5,-1.75 z"
             style="fill:#000000;fill-opacity:1;fill-rule:nonzero;stroke:none"
             id="path330" /><path
             d="m 707.5,708.88 -3.5,-7 3.5,1.75 3.5,-1.75 z"
             style="fill:none;stroke:#000000;stroke-width:1;stroke-linecap:butt;stroke-linejoin:miter;stroke-miterlimit:10;stroke-dasharray:none;stroke-opacity:1"
             id="path332" /></g><g
           id="g334"
           transform="matrix(2.8317995,0,0,2.8317995,-908.45001,-662.97699)"><path
             d="m 704,674 h 9 v 13 h -9 z"
             style="fill:#ffffff;fill-opacity:1;fill-rule:nonzero;stroke:none"
             id="path336" /><text
             transform="translate(703.90625,684)"
             style="font-variant:normal;font-weight:bold;font-size:11px;font-family:Arial;-inkscape-font-specification:Arial-BoldMT;writing-mode:lr-tb;fill:#000000;fill-opacity:1;fill-rule:nonzero;stroke:none"
             id="text340"><tspan
               x="0 3.0561523"
               y="0"
               sodipodi:role="line"
               id="tspan338">ja</tspan></text></g><g
           id="g342"
           transform="matrix(2.8317995,0,0,2.8317995,-907.03412,-661.5611)"><path
             d="m 894,500 h 102 c 0.59094,3e-5 1.17621,0.0577 1.75574,0.17294 0.57953,0.1153 1.14233,0.28601 1.68829,0.51212 0.54596,0.22613 1.06457,0.50336 1.55597,0.83166 0.4914,0.32831 0.946,0.70139 1.3639,1.11927 0.4178,0.41787 0.7909,0.87246 1.1192,1.36383 0.3283,0.49136 0.6056,1.01001 0.8317,1.55597 0.2261,0.54599 0.3968,1.10876 0.5121,1.68835 0.1154,0.57962 0.173,1.16489 0.1731,1.75586 v 42 c -10e-5,0.59094 -0.058,1.17615 -0.1731,1.75568 -0.1153,0.57965 -0.286,1.14245 -0.5121,1.68841 -0.2261,0.54596 -0.5034,1.06464 -0.8317,1.55597 -0.3283,0.4914 -0.7014,0.94598 -1.1192,1.36389 -0.4179,0.41779 -0.8725,0.7909 -1.3639,1.11927 -0.4914,0.32824 -1.01001,0.60546 -1.55597,0.8316 -0.54596,0.22613 -1.10876,0.39685 -1.68835,0.51221 C 997.17615,559.94232 996.59094,560 996,560 H 894 c -0.591,0 -1.17627,-0.0577 -1.75592,-0.17297 -0.57959,-0.11536 -1.14233,-0.28608 -1.68829,-0.51221 -0.54596,-0.22614 -1.06464,-0.50336 -1.55603,-0.83167 -0.4914,-0.3283 -0.94599,-0.70141 -1.36377,-1.1192 -0.41791,-0.41791 -0.79096,-0.87249 -1.11927,-1.36389 -0.32837,-0.49133 -0.60559,-1.01001 -0.83172,-1.55597 -0.22614,-0.54596 -0.39685,-1.10876 -0.51215,-1.68841 C 885.05756,552.17615 884.99994,551.59094 885,551 v -42 c -6e-5,-0.59097 0.0576,-1.17624 0.17285,-1.75586 0.1153,-0.57959 0.28601,-1.14236 0.51215,-1.68835 0.22613,-0.54596 0.50335,-1.06461 0.83172,-1.55597 0.32831,-0.49137 0.70136,-0.94596 1.11927,-1.36383 0.41778,-0.41788 0.87237,-0.79096 1.36377,-1.11927 0.49139,-0.3283 1.01007,-0.60553 1.55603,-0.83166 0.54596,-0.22611 1.1087,-0.39682 1.68829,-0.51212 C 892.82373,500.05768 893.409,500.00003 894,500 Z"
             style="fill:#ffffff;fill-opacity:1;fill-rule:nonzero;stroke:none"
             id="path344" /><path
             d="m 894,500 h 102 c 0.59094,3e-5 1.17621,0.0577 1.75574,0.17294 0.57953,0.1153 1.14233,0.28601 1.68829,0.51212 0.54596,0.22613 1.06457,0.50336 1.55597,0.83166 0.4914,0.32831 0.946,0.70139 1.3639,1.11927 0.4178,0.41787 0.7909,0.87246 1.1192,1.36383 0.3283,0.49136 0.6056,1.01001 0.8317,1.55597 0.2261,0.54599 0.3968,1.10876 0.5121,1.68835 0.1154,0.57962 0.173,1.16489 0.1731,1.75586 v 42 c -10e-5,0.59094 -0.058,1.17615 -0.1731,1.75568 -0.1153,0.57965 -0.286,1.14245 -0.5121,1.68841 -0.2261,0.54596 -0.5034,1.06464 -0.8317,1.55597 -0.3283,0.4914 -0.7014,0.94598 -1.1192,1.36389 -0.4179,0.41779 -0.8725,0.7909 -1.3639,1.11927 -0.4914,0.32824 -1.01001,0.60546 -1.55597,0.8316 -0.54596,0.22613 -1.10876,0.39685 -1.68835,0.51221 C 997.17615,559.94232 996.59094,560 996,560 H 894 c -0.591,0 -1.17627,-0.0577 -1.75592,-0.17297 -0.57959,-0.11536 -1.14233,-0.28608 -1.68829,-0.51221 -0.54596,-0.22614 -1.06464,-0.50336 -1.55603,-0.83167 -0.4914,-0.3283 -0.94599,-0.70141 -1.36377,-1.1192 -0.41791,-0.41791 -0.79096,-0.87249 -1.11927,-1.36389 -0.32837,-0.49133 -0.60559,-1.01001 -0.83172,-1.55597 -0.22614,-0.54596 -0.39685,-1.10876 -0.51215,-1.68841 C 885.05756,552.17615 884.99994,551.59094 885,551 v -42 c -6e-5,-0.59097 0.0576,-1.17624 0.17285,-1.75586 0.1153,-0.57959 0.28601,-1.14236 0.51215,-1.68835 0.22613,-0.54596 0.50335,-1.06461 0.83172,-1.55597 0.32831,-0.49137 0.70136,-0.94596 1.11927,-1.36383 0.41778,-0.41788 0.87237,-0.79096 1.36377,-1.11927 0.49139,-0.3283 1.01007,-0.60553 1.55603,-0.83166 0.54596,-0.22611 1.1087,-0.39682 1.68829,-0.51212 C 892.82373,500.05768 893.409,500.00003 894,500 Z"
             style="fill:none;stroke:#000000;stroke-width:1;stroke-linecap:butt;stroke-linejoin:miter;stroke-miterlimit:10;stroke-dasharray:none;stroke-opacity:1"
             id="path346" /></g><g
           id="g348"
           transform="matrix(2.8317995,0,0,2.8317995,-908.45001,-662.97699)"><text
             transform="translate(892.29688,534)"
             style="font-variant:normal;font-weight:bold;font-size:12px;font-family:Arial;-inkscape-font-specification:Arial-BoldMT;writing-mode:lr-tb;fill:#000000;fill-opacity:1;fill-rule:nonzero;stroke:none"
             id="text352"><tspan
               x="0 8.0039062 15.333984 22.007812 25.341797 32.015625 39.345703 46.019531 50.689453 54.023438 60.697266 68.027344 74.701172 78.035156 84.708984 91.382812 98.056641"
               y="0"
               sodipodi:role="line"
               id="tspan350">Speicher auslesen</tspan></text></g><g
           id="g354"
           transform="matrix(2.8317995,0,0,2.8317995,-907.03412,-661.5611)"><path
             d="m 1149,500 h 102 c 0.5909,3e-5 1.1763,0.0577 1.7557,0.17294 0.5795,0.1153 1.1424,0.28601 1.6884,0.51212 0.546,0.22613 1.0646,0.50336 1.5559,0.83166 0.4913,0.32831 0.946,0.70139 1.3639,1.11927 0.4178,0.41787 0.791,0.87246 1.1193,1.36383 0.3282,0.49136 0.6054,1.01001 0.8316,1.55597 0.2262,0.54599 0.397,1.10876 0.5124,1.68835 0.1152,0.57962 0.1728,1.16489 0.1728,1.75586 v 42 c 0,0.59094 -0.058,1.17615 -0.1728,1.75568 -0.1154,0.57965 -0.2862,1.14245 -0.5124,1.68841 -0.2262,0.54596 -0.5034,1.06464 -0.8316,1.55597 -0.3283,0.4914 -0.7015,0.94598 -1.1193,1.36389 -0.4179,0.41779 -0.8724,0.7909 -1.3638,1.11927 -0.4913,0.32824 -1.01,0.60546 -1.556,0.8316 -0.546,0.22613 -1.1089,0.39685 -1.6884,0.51221 C 1252.1763,559.94232 1251.5909,560 1251,560 h -102 c -0.5909,0 -1.1763,-0.0577 -1.7559,-0.17297 -0.5795,-0.11536 -1.1423,-0.28608 -1.6883,-0.51221 -0.5459,-0.22614 -1.0646,-0.50336 -1.5559,-0.83167 -0.4914,-0.3283 -0.9461,-0.70141 -1.3639,-1.1192 -0.4179,-0.41791 -0.791,-0.87249 -1.1194,-1.36389 -0.3282,-0.49133 -0.6055,-1.01001 -0.8317,-1.55597 -0.2262,-0.54596 -0.3968,-1.10876 -0.5122,-1.68841 C 1140.0576,552.17615 1140,551.59094 1140,551 v -42 c 0,-0.59097 0.058,-1.17624 0.1727,-1.75586 0.1154,-0.57959 0.286,-1.14236 0.5122,-1.68835 0.2262,-0.54596 0.5035,-1.06461 0.8318,-1.55597 0.3283,-0.49137 0.7014,-0.94596 1.1193,-1.36383 0.4178,-0.41788 0.8725,-0.79096 1.3639,-1.11927 0.4913,-0.3283 1.01,-0.60553 1.5559,-0.83166 0.546,-0.22611 1.1088,-0.39682 1.6883,-0.51212 0.5796,-0.11526 1.165,-0.17291 1.7559,-0.17294 z"
             style="fill:#f8cecc;fill-opacity:1;fill-rule:nonzero;stroke:none"
             id="path356" /><path
             d="m 1149,500 h 102 c 0.5909,3e-5 1.1763,0.0577 1.7557,0.17294 0.5795,0.1153 1.1424,0.28601 1.6884,0.51212 0.546,0.22613 1.0646,0.50336 1.5559,0.83166 0.4913,0.32831 0.946,0.70139 1.3639,1.11927 0.4178,0.41787 0.791,0.87246 1.1193,1.36383 0.3282,0.49136 0.6054,1.01001 0.8316,1.55597 0.2262,0.54599 0.397,1.10876 0.5124,1.68835 0.1152,0.57962 0.1728,1.16489 0.1728,1.75586 v 42 c 0,0.59094 -0.058,1.17615 -0.1728,1.75568 -0.1154,0.57965 -0.2862,1.14245 -0.5124,1.68841 -0.2262,0.54596 -0.5034,1.06464 -0.8316,1.55597 -0.3283,0.4914 -0.7015,0.94598 -1.1193,1.36389 -0.4179,0.41779 -0.8724,0.7909 -1.3638,1.11927 -0.4913,0.32824 -1.01,0.60546 -1.556,0.8316 -0.546,0.22613 -1.1089,0.39685 -1.6884,0.51221 C 1252.1763,559.94232 1251.5909,560 1251,560 h -102 c -0.5909,0 -1.1763,-0.0577 -1.7559,-0.17297 -0.5795,-0.11536 -1.1423,-0.28608 -1.6883,-0.51221 -0.5459,-0.22614 -1.0646,-0.50336 -1.5559,-0.83167 -0.4914,-0.3283 -0.9461,-0.70141 -1.3639,-1.1192 -0.4179,-0.41791 -0.791,-0.87249 -1.1194,-1.36389 -0.3282,-0.49133 -0.6055,-1.01001 -0.8317,-1.55597 -0.2262,-0.54596 -0.3968,-1.10876 -0.5122,-1.68841 C 1140.0576,552.17615 1140,551.59094 1140,551 v -42 c 0,-0.59097 0.058,-1.17624 0.1727,-1.75586 0.1154,-0.57959 0.286,-1.14236 0.5122,-1.68835 0.2262,-0.54596 0.5035,-1.06461 0.8318,-1.55597 0.3283,-0.49137 0.7014,-0.94596 1.1193,-1.36383 0.4178,-0.41788 0.8725,-0.79096 1.3639,-1.11927 0.4913,-0.3283 1.01,-0.60553 1.5559,-0.83166 0.546,-0.22611 1.1088,-0.39682 1.6883,-0.51212 0.5796,-0.11526 1.165,-0.17291 1.7559,-0.17294 z"
             style="fill:none;stroke:#b85450;stroke-width:1;stroke-linecap:butt;stroke-linejoin:miter;stroke-miterlimit:10;stroke-dasharray:none;stroke-opacity:1"
             id="path358" /></g><g
           id="g360"
           transform="matrix(2.8317995,0,0,2.8317995,-908.45001,-662.97699)"><text
             transform="translate(1163.9844,513)"
             style="font-variant:normal;font-weight:bold;font-size:12px;font-family:Arial;-inkscape-font-specification:Arial-BoldMT;writing-mode:lr-tb;fill:#000000;fill-opacity:1;fill-rule:nonzero;stroke:none"
             id="text364"><tspan
               x="0 7.3300781 14.003906 21.333984 24.667969 31.341797 36.011719 40.007812 43.341797 50.671875 54.005859 60.679688 68.009766"
               y="0"
               sodipodi:role="line"
               id="tspan362">Fehler: nicht</tspan></text><text
             transform="translate(1166.3281,527)"
             style="font-variant:normal;font-weight:bold;font-size:12px;font-family:Arial;-inkscape-font-specification:Arial-BoldMT;writing-mode:lr-tb;fill:#000000;fill-opacity:1;fill-rule:nonzero;stroke:none"
             id="text368"><tspan
               x="0 10.669922 18 25.330078 28.664062 31.998047 38.671875 46.001953 49.335938 60.005859 63.339844"
               y="0"
               sodipodi:role="line"
               id="tspan366">möglich mit</tspan></text><text
             transform="translate(1171.3125,542)"
             style="font-variant:normal;font-weight:bold;font-size:12px;font-family:Arial;-inkscape-font-specification:Arial-BoldMT;writing-mode:lr-tb;fill:#000000;fill-opacity:1;fill-rule:nonzero;stroke:none"
             id="text372"><tspan
               x="0 7.3300781 14.660156 19.330078 30 36.673828 40.007812 46.681641"
               y="0"
               sodipodi:role="line"
               id="tspan370">normalem</tspan></text><text
             transform="translate(1163,556)"
             style="font-variant:normal;font-weight:bold;font-size:12px;font-family:Arial;-inkscape-font-specification:Arial-BoldMT;writing-mode:lr-tb;fill:#000000;fill-opacity:1;fill-rule:nonzero;stroke:none"
             id="text376"><tspan
               x="0 8.6660156 15.996094 23.326172 27.322266 31.992188 39.322266 42.65625 45.990234 49.986328 53.320312 60.650391 67.324219"
               y="0"
               sodipodi:role="line"
               id="tspan374">Kontrollfluss</tspan></text></g><g
           id="g378"
           transform="matrix(2.8317995,0,0,2.8317995,-907.03412,-661.5611)"><path
             d="M 945,670 V 923.63"
             style="fill:none;stroke:#000000;stroke-width:1;stroke-linecap:butt;stroke-linejoin:miter;stroke-miterlimit:10;stroke-dasharray:none;stroke-opacity:1"
             id="path380" /><path
             d="m 945,928.88 -3.5,-7 3.5,1.75 3.5,-1.75 z"
             style="fill:#000000;fill-opacity:1;fill-rule:nonzero;stroke:none"
             id="path382" /><path
             d="m 945,928.88 -3.5,-7 3.5,1.75 3.5,-1.75 z"
             style="fill:none;stroke:#000000;stroke-width:1;stroke-linecap:butt;stroke-linejoin:miter;stroke-miterlimit:10;stroke-dasharray:none;stroke-opacity:1"
             id="path384" /></g><g
           id="g386"
           transform="matrix(2.8317995,0,0,2.8317995,-908.45001,-662.97699)"><path
             d="m 934,677 h 23 v 13 h -23 z"
             style="fill:#ffffff;fill-opacity:1;fill-rule:nonzero;stroke:none"
             id="path388" /><text
             transform="translate(934.1875,687)"
             style="font-variant:normal;font-weight:bold;font-size:11px;font-family:Arial;-inkscape-font-specification:Arial-BoldMT;writing-mode:lr-tb;fill:#000000;fill-opacity:1;fill-rule:nonzero;stroke:none"
             id="text392"><tspan
               x="0 6.7192383 12.836914 15.893066"
               y="0"
               sodipodi:role="line"
               id="tspan390">nein</tspan></text></g><g
           id="g394"
           transform="matrix(2.8317995,0,0,2.8317995,-907.03412,-661.5611)"><path
             d="M 1022.5,630 H 1130 v 53.63"
             style="fill:none;stroke:#000000;stroke-width:1;stroke-linecap:butt;stroke-linejoin:miter;stroke-miterlimit:10;stroke-dasharray:none;stroke-opacity:1"
             id="path396" /><path
             d="m 1130,688.88 -3.5,-7 3.5,1.75 3.5,-1.75 z"
             style="fill:#000000;fill-opacity:1;fill-rule:nonzero;stroke:none"
             id="path398" /><path
             d="m 1130,688.88 -3.5,-7 3.5,1.75 3.5,-1.75 z"
             style="fill:none;stroke:#000000;stroke-width:1;stroke-linecap:butt;stroke-linejoin:miter;stroke-miterlimit:10;stroke-dasharray:none;stroke-opacity:1"
             id="path400" /></g><g
           id="g402"
           transform="matrix(2.8317995,0,0,2.8317995,-908.45001,-662.97699)"><path
             d="m 1034,624 h 9 v 13 h -9 z"
             style="fill:#ffffff;fill-opacity:1;fill-rule:nonzero;stroke:none"
             id="path404" /><text
             transform="translate(1033.9063,634)"
             style="font-variant:normal;font-weight:bold;font-size:11px;font-family:Arial;-inkscape-font-specification:Arial-BoldMT;writing-mode:lr-tb;fill:#000000;fill-opacity:1;fill-rule:nonzero;stroke:none"
             id="text408"><tspan
               x="0 3.0561523"
               y="0"
               sodipodi:role="line"
               id="tspan406">ja</tspan></text><path
             d="m 945,590 77.5,40 -77.5,40 -77.5,-40 z"
             style="fill:#ffffff;fill-opacity:1;fill-rule:nonzero;stroke:none"
             id="path410" /><path
             d="m 945,590 77.5,40 -77.5,40 -77.5,-40 z"
             style="fill:none;stroke:#000000;stroke-width:1;stroke-linecap:butt;stroke-linejoin:miter;stroke-miterlimit:10;stroke-dasharray:none;stroke-opacity:1"
             id="path412" /><text
             transform="translate(905.48438,627)"
             style="font-variant:normal;font-weight:bold;font-size:12px;font-family:Arial;-inkscape-font-specification:Arial-BoldMT;writing-mode:lr-tb;fill:#000000;fill-opacity:1;fill-rule:nonzero;stroke:none"
             id="text416"><tspan
               x="0 8.6660156 15.339844 22.013672 28.6875 32.683594 36.679688 44.683594 48.017578 55.347656 58.681641 65.355469 72.685547 76.681641"
               y="0"
               sodipodi:role="line"
               id="tspan414">Reset-Pin auf </tspan></text><text
             transform="translate(915.8125,642)"
             style="font-variant:normal;font-weight:bold;font-size:12px;font-family:Arial;-inkscape-font-specification:Arial-BoldMT;writing-mode:lr-tb;fill:#000000;fill-opacity:1;fill-rule:nonzero;stroke:none"
             id="text420"><tspan
               x="0 3.3339844 10.664062 17.994141 21.328125 28.001953 34.675781 42.005859 45.339844 52.013672"
               y="0"
               sodipodi:role="line"
               id="tspan418">logisch 1?</tspan></text></g><g
           id="g422"
           transform="matrix(2.8317995,0,0,2.8317995,-907.03412,-661.5611)"><path
             d="m 945,560 v 23.63"
             style="fill:none;stroke:#000000;stroke-width:1;stroke-linecap:butt;stroke-linejoin:miter;stroke-miterlimit:10;stroke-dasharray:none;stroke-opacity:1"
             id="path424" /><path
             d="m 945,588.88 -3.5,-7 3.5,1.75 3.5,-1.75 z"
             style="fill:#000000;fill-opacity:1;fill-rule:nonzero;stroke:none"
             id="path426" /><path
             d="m 945,588.88 -3.5,-7 3.5,1.75 3.5,-1.75 z"
             style="fill:none;stroke:#000000;stroke-width:1;stroke-linecap:butt;stroke-linejoin:miter;stroke-miterlimit:10;stroke-dasharray:none;stroke-opacity:1"
             id="path428" /><path
             d="m 1130,750 v 70 H 948 c 0,-3.90002 -6,-3.90002 -6,0 h -99 c 0,-3.90002 -6,-3.90002 -6,0 H 710.5 c 0,-3.90002 -6,-3.90002 -6,0 H 465 v 103.63"
             style="fill:none;stroke:#000000;stroke-width:1;stroke-linecap:butt;stroke-linejoin:miter;stroke-miterlimit:10;stroke-dasharray:none;stroke-opacity:1"
             id="path430" /><path
             d="m 465,928.88 -3.5,-7 3.5,1.75 3.5,-1.75 z"
             style="fill:#000000;fill-opacity:1;fill-rule:nonzero;stroke:none"
             id="path432" /><path
             d="m 465,928.88 -3.5,-7 3.5,1.75 3.5,-1.75 z"
             style="fill:none;stroke:#000000;stroke-width:1;stroke-linecap:butt;stroke-linejoin:miter;stroke-miterlimit:10;stroke-dasharray:none;stroke-opacity:1"
             id="path434" /><path
             d="m 1079,690 h 102 c 0.5909,6e-5 1.1762,0.0577 1.7557,0.17297 0.5796,0.1153 1.1424,0.28595 1.6883,0.51209 0.546,0.22613 1.0645,0.50336 1.5559,0.8316 0.4914,0.32837 0.9461,0.70148 1.364,1.11933 0.4178,0.41784 0.7909,0.87243 1.1193,1.36377 0.3282,0.49139 0.6054,1.01001 0.8316,1.55597 0.2262,0.54595 0.3969,1.10876 0.5121,1.68841 0.1154,0.57959 0.173,1.16486 0.1731,1.75586 v 42 c -10e-5,0.59088 -0.058,1.17615 -0.1731,1.75574 -0.1152,0.57959 -0.2859,1.14233 -0.5121,1.68829 -0.2262,0.54596 -0.5034,1.06458 -0.8316,1.55591 -0.3284,0.49139 -0.7015,0.94604 -1.1193,1.36395 -0.4179,0.41785 -0.8726,0.79096 -1.364,1.11926 -0.4914,0.32831 -1.0099,0.60553 -1.5559,0.83167 -0.5459,0.2262 -1.1087,0.39691 -1.6883,0.51221 -0.5795,0.11529 -1.1648,0.17291 -1.7557,0.17297 h -102 c -0.5909,-6e-5 -1.1763,-0.0577 -1.7559,-0.17297 -0.5797,-0.1153 -1.1424,-0.28601 -1.6884,-0.51221 -0.5461,-0.22614 -1.0646,-0.50342 -1.5559,-0.83179 -0.4914,-0.32824 -0.946,-0.70129 -1.3638,-1.11914 -0.4179,-0.41791 -0.791,-0.87256 -1.1194,-1.36389 -0.3282,-0.49139 -0.6055,-1.01001 -0.8315,-1.55597 -0.2262,-0.54596 -0.3969,-1.1087 -0.5122,-1.68829 C 1070.0576,742.17615 1070,741.59088 1070,741 v -42 c 0,-0.591 0.058,-1.17627 0.1729,-1.75592 0.1153,-0.57959 0.286,-1.1424 0.5122,-1.68835 0.226,-0.54596 0.5033,-1.06458 0.8315,-1.55597 0.3284,-0.49134 0.7015,-0.94593 1.1194,-1.36377 0.4178,-0.41785 0.8724,-0.79096 1.3638,-1.11933 0.4913,-0.32824 1.0098,-0.60547 1.5559,-0.8316 0.546,-0.22614 1.1087,-0.39679 1.6884,-0.51209 0.5796,-0.11529 1.165,-0.17291 1.7559,-0.17297 z"
             style="fill:#ffffff;fill-opacity:1;fill-rule:nonzero;stroke:none"
             id="path436" /><path
             d="m 1079,690 h 102 c 0.5909,6e-5 1.1762,0.0577 1.7557,0.17297 0.5796,0.1153 1.1424,0.28595 1.6883,0.51209 0.546,0.22613 1.0645,0.50336 1.5559,0.8316 0.4914,0.32837 0.9461,0.70148 1.364,1.11933 0.4178,0.41784 0.7909,0.87243 1.1193,1.36377 0.3282,0.49139 0.6054,1.01001 0.8316,1.55597 0.2262,0.54595 0.3969,1.10876 0.5121,1.68841 0.1154,0.57959 0.173,1.16486 0.1731,1.75586 v 42 c -10e-5,0.59088 -0.058,1.17615 -0.1731,1.75574 -0.1152,0.57959 -0.2859,1.14233 -0.5121,1.68829 -0.2262,0.54596 -0.5034,1.06458 -0.8316,1.55591 -0.3284,0.49139 -0.7015,0.94604 -1.1193,1.36395 -0.4179,0.41785 -0.8726,0.79096 -1.364,1.11926 -0.4914,0.32831 -1.0099,0.60553 -1.5559,0.83167 -0.5459,0.2262 -1.1087,0.39691 -1.6883,0.51221 -0.5795,0.11529 -1.1648,0.17291 -1.7557,0.17297 h -102 c -0.5909,-6e-5 -1.1763,-0.0577 -1.7559,-0.17297 -0.5797,-0.1153 -1.1424,-0.28601 -1.6884,-0.51221 -0.5461,-0.22614 -1.0646,-0.50342 -1.5559,-0.83179 -0.4914,-0.32824 -0.946,-0.70129 -1.3638,-1.11914 -0.4179,-0.41791 -0.791,-0.87256 -1.1194,-1.36389 -0.3282,-0.49139 -0.6055,-1.01001 -0.8315,-1.55597 -0.2262,-0.54596 -0.3969,-1.1087 -0.5122,-1.68829 C 1070.0576,742.17615 1070,741.59088 1070,741 v -42 c 0,-0.591 0.058,-1.17627 0.1729,-1.75592 0.1153,-0.57959 0.286,-1.1424 0.5122,-1.68835 0.226,-0.54596 0.5033,-1.06458 0.8315,-1.55597 0.3284,-0.49134 0.7015,-0.94593 1.1194,-1.36377 0.4178,-0.41785 0.8724,-0.79096 1.3638,-1.11933 0.4913,-0.32824 1.0098,-0.60547 1.5559,-0.8316 0.546,-0.22614 1.1087,-0.39679 1.6884,-0.51209 0.5796,-0.11529 1.165,-0.17291 1.7559,-0.17297 z"
             style="fill:none;stroke:#000000;stroke-width:1;stroke-linecap:butt;stroke-linejoin:miter;stroke-miterlimit:10;stroke-dasharray:none;stroke-opacity:1"
             id="path438" /></g><g
           id="g440"
           transform="matrix(2.8317995,0,0,2.8317995,-908.45001,-662.97699)"><text
             transform="translate(1075.9844,724)"
             style="font-variant:normal;font-weight:bold;font-size:12px;font-family:Arial;-inkscape-font-specification:Arial-BoldMT;writing-mode:lr-tb;fill:#000000;fill-opacity:1;fill-rule:nonzero;stroke:none"
             id="text444"><tspan
               x="0 8.6660156 15.339844 22.013672 28.6875 32.683594 36.679688 45.345703 52.019531 56.015625 62.689453 70.019531 73.353516 76.6875 80.021484 86.695312 94.025391 100.69922"
               y="0"
               sodipodi:role="line"
               id="tspan442">Reset-Befehl laden</tspan></text></g><g
           id="g446"
           transform="matrix(2.8317995,0,0,2.8317995,-907.03412,-661.5611)"><path
             d="m 851,930 h 188 c 0.3939,0 0.7841,0.0384 1.1704,0.11523 0.3864,0.0769 0.7615,0.19062 1.1255,0.34144 0.3639,0.15081 0.7097,0.33563 1.0374,0.55444 0.3276,0.21887 0.6307,0.46759 0.9093,0.74621 0.2785,0.27857 0.5272,0.58161 0.7459,0.90918 0.2189,0.32752 0.4038,0.67328 0.5546,1.0373 0.1507,0.36395 0.2646,0.73913 0.3415,1.12555 0.077,0.38641 0.1153,0.77667 0.1154,1.17065 v 28 c -10e-5,0.39392 -0.039,0.78406 -0.1154,1.17041 -0.077,0.38647 -0.1906,0.76166 -0.3414,1.12561 -0.1507,0.36395 -0.3357,0.70972 -0.5545,1.03729 -0.2189,0.32758 -0.4676,0.63062 -0.7461,0.90924 -0.2786,0.27863 -0.5817,0.52735 -0.9093,0.74622 -0.3277,0.21887 -0.6735,0.40369 -1.0374,0.55438 -0.364,0.15076 -0.7391,0.26459 -1.1255,0.34143 -0.3863,0.0768 -0.7765,0.11536 -1.1704,0.11542 H 851 c -0.39404,-6e-5 -0.78424,-0.0386 -1.17065,-0.11542 -0.38642,-0.0768 -0.7616,-0.19067 -1.12555,-0.34143 -0.36396,-0.15069 -0.70978,-0.33551 -1.03736,-0.55444 -0.32757,-0.21881 -0.63061,-0.46753 -0.90912,-0.74616 -0.27862,-0.27862 -0.52734,-0.58166 -0.74621,-0.90924 -0.21887,-0.32763 -0.40369,-0.6734 -0.55444,-1.03735 -0.15076,-0.36395 -0.26453,-0.73914 -0.34137,-1.12549 C 845.03845,964.78406 845,964.39392 845,964 v -28 c 0,-0.39398 0.0385,-0.78424 0.1153,-1.17065 0.0768,-0.38642 0.19061,-0.7616 0.34137,-1.12555 0.15075,-0.36402 0.33557,-0.70978 0.55444,-1.0373 0.21887,-0.32757 0.46759,-0.63061 0.74621,-0.90918 0.27851,-0.27862 0.58155,-0.52734 0.90912,-0.74627 0.32758,-0.21881 0.6734,-0.40357 1.03736,-0.55438 0.36395,-0.15082 0.73913,-0.26459 1.12555,-0.34144 C 850.21576,930.03839 850.60596,930 851,930 Z"
             style="fill:#d5e8d4;fill-opacity:1;fill-rule:nonzero;stroke:none"
             id="path448" /><path
             d="m 851,930 h 188 c 0.3939,0 0.7841,0.0384 1.1704,0.11523 0.3864,0.0769 0.7615,0.19062 1.1255,0.34144 0.3639,0.15081 0.7097,0.33563 1.0374,0.55444 0.3276,0.21887 0.6307,0.46759 0.9093,0.74621 0.2785,0.27857 0.5272,0.58161 0.7459,0.90918 0.2189,0.32752 0.4038,0.67328 0.5546,1.0373 0.1507,0.36395 0.2646,0.73913 0.3415,1.12555 0.077,0.38641 0.1153,0.77667 0.1154,1.17065 v 28 c -10e-5,0.39392 -0.039,0.78406 -0.1154,1.17041 -0.077,0.38647 -0.1906,0.76166 -0.3414,1.12561 -0.1507,0.36395 -0.3357,0.70972 -0.5545,1.03729 -0.2189,0.32758 -0.4676,0.63062 -0.7461,0.90924 -0.2786,0.27863 -0.5817,0.52735 -0.9093,0.74622 -0.3277,0.21887 -0.6735,0.40369 -1.0374,0.55438 -0.364,0.15076 -0.7391,0.26459 -1.1255,0.34143 -0.3863,0.0768 -0.7765,0.11536 -1.1704,0.11542 H 851 c -0.39404,-6e-5 -0.78424,-0.0386 -1.17065,-0.11542 -0.38642,-0.0768 -0.7616,-0.19067 -1.12555,-0.34143 -0.36396,-0.15069 -0.70978,-0.33551 -1.03736,-0.55444 -0.32757,-0.21881 -0.63061,-0.46753 -0.90912,-0.74616 -0.27862,-0.27862 -0.52734,-0.58166 -0.74621,-0.90924 -0.21887,-0.32763 -0.40369,-0.6734 -0.55444,-1.03735 -0.15076,-0.36395 -0.26453,-0.73914 -0.34137,-1.12549 C 845.03845,964.78406 845,964.39392 845,964 v -28 c 0,-0.39398 0.0385,-0.78424 0.1153,-1.17065 0.0768,-0.38642 0.19061,-0.7616 0.34137,-1.12555 0.15075,-0.36402 0.33557,-0.70978 0.55444,-1.0373 0.21887,-0.32757 0.46759,-0.63061 0.74621,-0.90918 0.27851,-0.27862 0.58155,-0.52734 0.90912,-0.74627 0.32758,-0.21881 0.6734,-0.40357 1.03736,-0.55438 0.36395,-0.15082 0.73913,-0.26459 1.12555,-0.34144 C 850.21576,930.03839 850.60596,930 851,930 Z"
             style="fill:none;stroke:#82b366;stroke-width:1;stroke-linecap:butt;stroke-linejoin:miter;stroke-miterlimit:10;stroke-dasharray:none;stroke-opacity:1"
             id="path450" /></g><g
           id="g452"
           transform="matrix(2.8317995,0,0,2.8317995,-908.45001,-662.97699)"><text
             transform="translate(848.79688,954)"
             style="font-variant:normal;font-weight:bold;font-size:12px;font-family:Arial;-inkscape-font-specification:Arial-BoldMT;writing-mode:lr-tb;fill:#000000;fill-opacity:1;fill-rule:nonzero;stroke:none"
             id="text456"><tspan
               x="0 7.3300781 14.003906 20.677734 24.673828 31.347656 38.021484 44.695312 51.369141 58.042969 65.373047 69.369141 72.703125 80.033203 87.363281 94.037109 100.71094 104.70703 111.38086 115.37695 122.05078 125.38477 132.39258 135.72656 144.39258 151.06641 157.74023 164.41406 168.41016 175.74023 183.07031"
               y="0"
               sodipodi:role="line"
               id="tspan454">next_execution_state = ResetLow</tspan></text></g><g
           id="g458"
           transform="matrix(2.8317995,0,0,2.8317995,-907.03412,-661.5611)"><path
             d="M 665,1060 H 945 V 976.37"
             style="fill:none;stroke:#000000;stroke-width:1;stroke-linecap:butt;stroke-linejoin:miter;stroke-miterlimit:10;stroke-dasharray:none;stroke-opacity:1"
             id="path460" /><path
             d="m 945,971.12 3.5,7 -3.5,-1.75 -3.5,1.75 z"
             style="fill:#000000;fill-opacity:1;fill-rule:nonzero;stroke:none"
             id="path462" /><path
             d="m 945,971.12 3.5,7 -3.5,-1.75 -3.5,1.75 z"
             style="fill:none;stroke:#000000;stroke-width:1;stroke-linecap:butt;stroke-linejoin:miter;stroke-miterlimit:10;stroke-dasharray:none;stroke-opacity:1"
             id="path464" /></g><g
           id="g466"
           transform="matrix(2.8317995,0,0,2.8317995,-908.45001,-662.97699)"><path
             d="m 676,1054 h 9 v 13 h -9 z"
             style="fill:#ffffff;fill-opacity:1;fill-rule:nonzero;stroke:none"
             id="path468" /><text
             transform="translate(675.90625,1064)"
             style="font-variant:normal;font-weight:bold;font-size:11px;font-family:Arial;-inkscape-font-specification:Arial-BoldMT;writing-mode:lr-tb;fill:#000000;fill-opacity:1;fill-rule:nonzero;stroke:none"
             id="text472"><tspan
               x="0 3.0561523"
               y="0"
               sodipodi:role="line"
               id="tspan470">ja</tspan></text><path
             d="m 587.5,1020 77.5,40 -77.5,40 -77.5,-40 z"
             style="fill:#ffffff;fill-opacity:1;fill-rule:nonzero;stroke:none"
             id="path474" /><path
             d="m 587.5,1020 77.5,40 -77.5,40 -77.5,-40 z"
             style="fill:none;stroke:#000000;stroke-width:1;stroke-linecap:butt;stroke-linejoin:miter;stroke-miterlimit:10;stroke-dasharray:none;stroke-opacity:1"
             id="path476" /><text
             transform="translate(547.48438,1057)"
             style="font-variant:normal;font-weight:bold;font-size:12px;font-family:Arial;-inkscape-font-specification:Arial-BoldMT;writing-mode:lr-tb;fill:#000000;fill-opacity:1;fill-rule:nonzero;stroke:none"
             id="text480"><tspan
               x="0 8.6660156 15.339844 22.013672 28.6875 32.683594 36.679688 44.683594 48.017578 55.347656 58.681641 65.355469 72.685547 76.681641"
               y="0"
               sodipodi:role="line"
               id="tspan478">Reset-Pin auf </tspan></text><text
             transform="translate(557.8125,1072)"
             style="font-variant:normal;font-weight:bold;font-size:12px;font-family:Arial;-inkscape-font-specification:Arial-BoldMT;writing-mode:lr-tb;fill:#000000;fill-opacity:1;fill-rule:nonzero;stroke:none"
             id="text484"><tspan
               x="0 3.3339844 10.664062 17.994141 21.328125 28.001953 34.675781 42.005859 45.339844 52.013672"
               y="0"
               sodipodi:role="line"
               id="tspan482">logisch 0?</tspan></text></g><g
           id="g486"
           transform="matrix(2.8317995,0,0,2.8317995,-907.03412,-661.5611)"><path
             d="m 465,970 v 25 h 122.5 v 18.63"
             style="fill:none;stroke:#000000;stroke-width:1;stroke-linecap:butt;stroke-linejoin:miter;stroke-miterlimit:10;stroke-dasharray:none;stroke-opacity:1"
             id="path488" /><path
             d="m 587.5,1018.88 -3.5,-7 3.5,1.75 3.5,-1.75 z"
             style="fill:#000000;fill-opacity:1;fill-rule:nonzero;stroke:none"
             id="path490" /><path
             d="m 587.5,1018.88 -3.5,-7 3.5,1.75 3.5,-1.75 z"
             style="fill:none;stroke:#000000;stroke-width:1;stroke-linecap:butt;stroke-linejoin:miter;stroke-miterlimit:10;stroke-dasharray:none;stroke-opacity:1"
             id="path492" /><path
             d="m 707.5,970 v 25 h -120 v 18.63"
             style="fill:none;stroke:#000000;stroke-width:1;stroke-linecap:butt;stroke-linejoin:miter;stroke-miterlimit:10;stroke-dasharray:none;stroke-opacity:1"
             id="path494" /><path
             d="m 587.5,1018.88 -3.5,-7 3.5,1.75 3.5,-1.75 z"
             style="fill:#000000;fill-opacity:1;fill-rule:nonzero;stroke:none"
             id="path496" /><path
             d="m 587.5,1018.88 -3.5,-7 3.5,1.75 3.5,-1.75 z"
             style="fill:none;stroke:#000000;stroke-width:1;stroke-linecap:butt;stroke-linejoin:miter;stroke-miterlimit:10;stroke-dasharray:none;stroke-opacity:1"
             id="path498" /><path
             d="m 607.5,860 h -41.20001 v -37 c 3.90002,0 3.90002,-6 0,-6 V 634.16998 c 3.90002,0 3.90002,-6 0,-6 V 530 H 531.37"
             style="fill:none;stroke:#000000;stroke-width:1;stroke-linecap:butt;stroke-linejoin:miter;stroke-miterlimit:10;stroke-dasharray:none;stroke-opacity:1"
             id="path500" /><path
             d="m 526.12,530 7,-3.5 -1.75,3.5 1.75,3.5 z"
             style="fill:#000000;fill-opacity:1;fill-rule:nonzero;stroke:none"
             id="path502" /><path
             d="m 526.12,530 7,-3.5 -1.75,3.5 1.75,3.5 z"
             style="fill:none;stroke:#000000;stroke-width:1;stroke-linecap:butt;stroke-linejoin:miter;stroke-miterlimit:10;stroke-dasharray:none;stroke-opacity:1"
             id="path504" /><path
             d="m 613.5,840 h 188 c 0.39392,0 0.78412,0.0384 1.17053,0.11523 0.38635,0.0769 0.76154,0.19074 1.12549,0.34144 0.36395,0.15075 0.70978,0.33557 1.03735,0.5545 0.32752,0.21881 0.63062,0.46753 0.90924,0.74615 0.27857,0.27857 0.52729,0.58161 0.74616,0.90918 0.21881,0.32758 0.40363,0.6734 0.55444,1.03736 0.15082,0.36395 0.26459,0.73919 0.34143,1.12561 0.0769,0.38635 0.11536,0.77655 0.11536,1.17053 v 28 c 0,0.39386 -0.0385,0.784 -0.1153,1.17041 -0.0768,0.38635 -0.19067,0.76154 -0.34149,1.12549 -0.15081,0.36395 -0.33557,0.70978 -0.55438,1.03735 -0.21893,0.32758 -0.46765,0.63068 -0.74622,0.9093 -0.27862,0.27863 -0.58172,0.52735 -0.90924,0.74622 -0.32757,0.21881 -0.6734,0.40363 -1.03735,0.55438 -0.36395,0.15076 -0.73914,0.26459 -1.12549,0.34149 -0.38641,0.0769 -0.77661,0.1153 -1.17053,0.11536 h -188 c -0.39398,-6e-5 -0.78412,-0.0385 -1.17053,-0.11536 -0.38642,-0.0769 -0.7616,-0.19073 -1.12561,-0.34149 -0.36396,-0.15075 -0.70978,-0.33557 -1.03736,-0.55444 -0.32757,-0.21881 -0.63061,-0.46753 -0.90918,-0.74616 -0.27862,-0.27862 -0.52734,-0.58172 -0.74621,-0.9093 -0.21887,-0.32757 -0.40369,-0.6734 -0.55444,-1.03735 -0.15076,-0.36395 -0.26453,-0.73914 -0.34137,-1.12549 C 607.53845,874.784 607.5,874.39386 607.5,874 v -28 c 0,-0.39398 0.0385,-0.78418 0.1153,-1.17059 0.0768,-0.38642 0.19061,-0.7616 0.34137,-1.12555 0.15075,-0.36396 0.33557,-0.70978 0.55444,-1.03736 0.21887,-0.32757 0.46759,-0.63061 0.74621,-0.90918 0.27857,-0.27862 0.58161,-0.52734 0.90918,-0.74615 0.32758,-0.21893 0.6734,-0.40375 1.03736,-0.5545 0.36401,-0.1507 0.73919,-0.26453 1.12561,-0.34137 C 612.71588,840.03845 613.10602,840 613.5,840 Z"
             style="fill:#ffffff;fill-opacity:1;fill-rule:nonzero;stroke:none"
             id="path506" /><path
             d="m 613.5,840 h 188 c 0.39392,0 0.78412,0.0384 1.17053,0.11523 0.38635,0.0769 0.76154,0.19074 1.12549,0.34144 0.36395,0.15075 0.70978,0.33557 1.03735,0.5545 0.32752,0.21881 0.63062,0.46753 0.90924,0.74615 0.27857,0.27857 0.52729,0.58161 0.74616,0.90918 0.21881,0.32758 0.40363,0.6734 0.55444,1.03736 0.15082,0.36395 0.26459,0.73919 0.34143,1.12561 0.0769,0.38635 0.11536,0.77655 0.11536,1.17053 v 28 c 0,0.39386 -0.0385,0.784 -0.1153,1.17041 -0.0768,0.38635 -0.19067,0.76154 -0.34149,1.12549 -0.15081,0.36395 -0.33557,0.70978 -0.55438,1.03735 -0.21893,0.32758 -0.46765,0.63068 -0.74622,0.9093 -0.27862,0.27863 -0.58172,0.52735 -0.90924,0.74622 -0.32757,0.21881 -0.6734,0.40363 -1.03735,0.55438 -0.36395,0.15076 -0.73914,0.26459 -1.12549,0.34149 -0.38641,0.0769 -0.77661,0.1153 -1.17053,0.11536 h -188 c -0.39398,-6e-5 -0.78412,-0.0385 -1.17053,-0.11536 -0.38642,-0.0769 -0.7616,-0.19073 -1.12561,-0.34149 -0.36396,-0.15075 -0.70978,-0.33557 -1.03736,-0.55444 -0.32757,-0.21881 -0.63061,-0.46753 -0.90918,-0.74616 -0.27862,-0.27862 -0.52734,-0.58172 -0.74621,-0.9093 -0.21887,-0.32757 -0.40369,-0.6734 -0.55444,-1.03735 -0.15076,-0.36395 -0.26453,-0.73914 -0.34137,-1.12549 C 607.53845,874.784 607.5,874.39386 607.5,874 v -28 c 0,-0.39398 0.0385,-0.78418 0.1153,-1.17059 0.0768,-0.38642 0.19061,-0.7616 0.34137,-1.12555 0.15075,-0.36396 0.33557,-0.70978 0.55444,-1.03736 0.21887,-0.32757 0.46759,-0.63061 0.74621,-0.90918 0.27857,-0.27862 0.58161,-0.52734 0.90918,-0.74615 0.32758,-0.21893 0.6734,-0.40375 1.03736,-0.5545 0.36401,-0.1507 0.73919,-0.26453 1.12561,-0.34137 C 612.71588,840.03845 613.10602,840 613.5,840 Z"
             style="fill:none;stroke:#82b366;stroke-width:1;stroke-linecap:butt;stroke-linejoin:miter;stroke-miterlimit:10;stroke-dasharray:none;stroke-opacity:1"
             id="path508" /></g><g
           id="g510"
           transform="matrix(2.8317995,0,0,2.8317995,-908.45001,-662.97699)"><text
             transform="translate(616.78125,864)"
             style="font-variant:normal;font-weight:bold;font-size:12px;font-family:Arial;-inkscape-font-specification:Arial-BoldMT;writing-mode:lr-tb;fill:#000000;fill-opacity:1;fill-rule:nonzero;stroke:none"
             id="text514"><tspan
               x="0 6.6738281 13.347656 20.021484 26.695312 34.025391 38.021484 41.355469 48.685547 56.015625 62.689453 69.363281 73.359375 80.033203 84.029297 90.703125 94.037109 101.04492 104.37891 111.70898 118.38281 122.37891 129.05273 136.38281 144.38672 151.06055 157.73438 164.4082 171.73828 175.73438"
               y="0"
               sodipodi:role="line"
               id="tspan512">execution_state = FetchExecute</tspan></text></g></g></g></g></svg>
