<?xml version="1.0" encoding="UTF-8" standalone="no"?>
<!-- Created with Inkscape (http://www.inkscape.org/) -->

<svg
   version="1.1"
   id="svg2"
   xml:space="preserve"
   width="361.28"
   height="307.84"
   viewBox="0 0 361.28 307.84"
   sodipodi:docname="jade_states.pdf"
   xmlns:inkscape="http://www.inkscape.org/namespaces/inkscape"
   xmlns:sodipodi="http://sodipodi.sourceforge.net/DTD/sodipodi-0.dtd"
   xmlns="http://www.w3.org/2000/svg"
   xmlns:svg="http://www.w3.org/2000/svg"><defs
     id="defs6"><clipPath
       clipPathUnits="userSpaceOnUse"
       id="clipPath16"><path
         d="M 0,0 H 1130 V 962.98828 H 0 Z"
         clip-rule="evenodd"
         id="path14" /></clipPath><clipPath
       clipPathUnits="userSpaceOnUse"
       id="clipPath28"><path
         d="m 78.125,65.625 h 975 v 831.25 h -975 z"
         clip-rule="evenodd"
         id="path26" /></clipPath></defs><sodipodi:namedview
     id="namedview4"
     pagecolor="#ffffff"
     bordercolor="#666666"
     borderopacity="1.0"
     inkscape:pageshadow="2"
     inkscape:pageopacity="0.0"
     inkscape:pagecheckerboard="0" /><g
     id="g8"
     inkscape:groupmode="layer"
     inkscape:label="jade_states"
     transform="matrix(0.31999998,0,0,0.31999998,0,1.1029333e-5)"><g
       id="g10"><g
         id="g12"
         clip-path="url(#clipPath16)"><g
           id="g18"
           transform="scale(3.125)"><path
             d="M 0,0 H 362 V 308 H 0 Z"
             style="fill:#ffffff;fill-opacity:1;fill-rule:nonzero;stroke:none"
             id="path20" /></g></g></g><g
       id="g22"><g
         id="g24"
         clip-path="url(#clipPath28)"><g
           id="g30"
           transform="matrix(2.5668557,0,0,2.5668557,-429.52686,-109.64647)"><path
             d="M 341.20999,121.21 473.41,205.37"
             style="fill:none;stroke:#000000;stroke-width:1;stroke-linecap:butt;stroke-linejoin:miter;stroke-miterlimit:10;stroke-dasharray:none;stroke-opacity:1"
             id="path32" /><path
             d="m 477.84,208.19 -7.78,-0.81 3.35,-2.01 0.41001,-3.9 z"
             style="fill:#000000;fill-opacity:1;fill-rule:nonzero;stroke:none"
             id="path34" /><path
             d="m 477.84,208.19 -7.78,-0.81 3.35,-2.01 0.41001,-3.9 z"
             style="fill:none;stroke:#000000;stroke-width:1;stroke-linecap:butt;stroke-linejoin:miter;stroke-miterlimit:10;stroke-dasharray:none;stroke-opacity:1"
             id="path36" /><path
             d="m 350,100 c 0,0.98254 -0.0482,1.96272 -0.14447,2.94052 -0.0963,0.97781 -0.2403,1.94853 -0.43204,2.91219 -0.19168,0.96366 -0.43011,1.9156 -0.7153,2.85583 -0.28522,0.94024 -0.61584,1.86422 -0.99185,2.77196 -0.37598,0.90775 -0.79556,1.79488 -1.25876,2.6614 -0.46316,0.86652 -0.96768,1.70825 -1.51355,2.5252 -0.54587,0.81696 -1.13046,1.60518 -1.75378,2.3647 -0.62329,0.75951 -1.28232,1.48665 -1.97708,2.1814 -0.69474,0.69477 -1.42188,1.3538 -2.18137,1.97711 -0.75952,0.62332 -1.54776,1.20791 -2.36475,1.75377 -0.81692,0.54587 -1.65866,1.05039 -2.5252,1.51355 -0.86649,0.46317 -1.75364,0.88275 -2.66138,1.25874 -0.90775,0.37601 -1.83173,0.70662 -2.77194,0.99184 -0.94025,0.28521 -1.89218,0.52366 -2.85584,0.71534 -0.96365,0.19168 -1.93436,0.33568 -2.91217,0.43198 C 321.96271,129.95184 320.98254,130 320,130 c -0.98254,0 -1.96271,-0.0482 -2.94052,-0.14447 -0.97781,-0.0963 -1.94855,-0.2403 -2.9122,-0.43198 -0.96366,-0.19168 -1.91559,-0.43013 -2.85581,-0.71534 -0.94024,-0.28522 -1.86425,-0.61583 -2.772,-0.99184 -0.90775,-0.37599 -1.79486,-0.79557 -2.66138,-1.25873 -0.86654,-0.46317 -1.70828,-0.96769 -2.52523,-1.51356 -0.81693,-0.54586 -1.60517,-1.13045 -2.36466,-1.75377 -0.75949,-0.62331 -1.48663,-1.28234 -2.18143,-1.97711 -0.69473,-0.69475 -1.35376,-1.42189 -1.97708,-2.1814 -0.62332,-0.75952 -1.20791,-1.54774 -1.75378,-2.3647 -0.54587,-0.81695 -1.05039,-1.65868 -1.51355,-2.52519 -0.46317,-0.86653 -0.88275,-1.75366 -1.25876,-2.66141 -0.37601,-0.90774 -0.7066,-1.83173 -0.99179,-2.77197 -0.28525,-0.94022 -0.52371,-1.89217 -0.71539,-2.85583 -0.19168,-0.96365 -0.33567,-1.93438 -0.43195,-2.91219 -0.0963,-0.9778 -0.14444,-1.95797 -0.14447,-2.94051 3e-5,-0.982536 0.0482,-1.962715 0.14447,-2.940521 0.0963,-0.977806 0.24027,-1.948548 0.43195,-2.912209 0.19168,-0.963653 0.43014,-1.915588 0.71539,-2.855812 0.28519,-0.940231 0.61578,-1.86422 0.99179,-2.771973 0.37601,-0.907737 0.79559,-1.794868 1.25876,-2.661392 0.46316,-0.866523 0.96768,-1.708259 1.51355,-2.525215 0.54587,-0.81694 1.13046,-1.605163 1.75378,-2.364677 0.62332,-0.759507 1.28235,-1.486641 1.97708,-2.181412 0.6948,-0.694748 1.42194,-1.353783 2.18143,-1.977097 0.75949,-0.623314 1.54773,-1.207916 2.36466,-1.753791 0.81695,-0.545861 1.65869,-1.050377 2.5252,-1.513543 0.86655,-0.463165 1.75366,-0.882751 2.66141,-1.258751 0.90775,-0.375999 1.83176,-0.706611 2.772,-0.991821 0.94022,-0.285217 1.89215,-0.523666 2.85581,-0.715347 0.96365,-0.191673 1.93439,-0.335671 2.9122,-0.431976 C 318.03729,70.048157 319.01746,70.000008 320,70 c 0.98254,8e-6 1.96271,0.04816 2.94052,0.144463 0.97781,0.09631 1.94852,0.240303 2.91217,0.431976 0.96366,0.191681 1.91559,0.43013 2.85584,0.71534 0.94021,0.285217 1.86419,0.615829 2.77194,0.991828 0.90774,0.376 1.79489,0.795586 2.66138,1.258759 0.86654,0.463158 1.70828,0.967674 2.5252,1.513542 0.81699,0.545876 1.60523,1.13047 2.36472,1.753784 0.75952,0.623314 1.48666,1.282349 2.1814,1.977097 0.69476,0.694771 1.35379,1.421905 1.97708,2.181412 0.62332,0.759514 1.20791,1.547737 1.75378,2.364677 0.54587,0.816956 1.05039,1.658692 1.51355,2.525208 0.4632,0.866523 0.88278,1.753662 1.25876,2.661399 0.37601,0.907753 0.70663,1.831742 0.99185,2.771973 0.28522,0.940224 0.52365,1.892166 0.71533,2.85582 0.19171,0.963661 0.33573,1.934395 0.43201,2.912201 C 349.95184,98.037285 350,99.017464 350,100 Z"
             style="fill:#0088ef;fill-opacity:1;fill-rule:nonzero;stroke:none"
             id="path38" /></g><g
           id="g40"
           transform="matrix(2.5668557,0,0,2.5668557,-430.81024,-110.9299)"><text
             transform="translate(314.5,106)"
             style="font-variant:normal;font-weight:normal;font-size:18px;font-family:ArialMT;-inkscape-font-specification:ArialMT;writing-mode:lr-tb;fill:#ffffff;fill-opacity:1;fill-rule:nonzero;stroke:none"
             id="text44"><tspan
               x="0"
               y="0"
               id="tspan42">F</tspan></text></g><g
           id="g46"
           transform="matrix(2.5668557,0,0,2.5668557,-429.52686,-109.64647)"><path
             d="M 349.04001,236.72 410,236.7 l 54.41,0.18"
             style="fill:none;stroke:#000000;stroke-width:1;stroke-linecap:butt;stroke-linejoin:miter;stroke-miterlimit:10;stroke-dasharray:none;stroke-opacity:1"
             id="path48" /><path
             d="m 469.66,236.89999 -7.01001,3.47001 1.76001,-3.49 -1.73999,-3.51 z"
             style="fill:#000000;fill-opacity:1;fill-rule:nonzero;stroke:none"
             id="path50" /><path
             d="m 469.66,236.89999 -7.01001,3.47001 1.76001,-3.49 -1.73999,-3.51 z"
             style="fill:none;stroke:#000000;stroke-width:1;stroke-linecap:butt;stroke-linejoin:miter;stroke-miterlimit:10;stroke-dasharray:none;stroke-opacity:1"
             id="path52" /><path
             d="m 350,230 c 0,0.98254 -0.0482,1.96272 -0.14447,2.94052 -0.0963,0.9778 -0.2403,1.94852 -0.43204,2.91217 -0.19168,0.96367 -0.43011,1.91562 -0.7153,2.85584 -0.28522,0.94023 -0.61584,1.86422 -0.99185,2.77195 -0.37598,0.90776 -0.79556,1.7949 -1.25876,2.66141 -0.46316,0.86653 -0.96768,1.70827 -1.51355,2.52519 -0.54587,0.81697 -1.13046,1.60521 -1.75378,2.36472 -0.62329,0.75951 -1.28232,1.48665 -1.97708,2.1814 -0.69474,0.69476 -1.42188,1.3538 -2.18137,1.97711 -0.75952,0.62332 -1.54776,1.20791 -2.36475,1.75377 -0.81692,0.54588 -1.65866,1.0504 -2.5252,1.51356 -0.86649,0.46317 -1.75364,0.88272 -2.66138,1.25873 -0.90775,0.37601 -1.83173,0.7066 -2.77194,0.99185 -0.94025,0.28519 -1.89218,0.52362 -2.85584,0.7153 -0.96365,0.19168 -1.93436,0.3357 -2.91217,0.43198 C 321.96271,259.95184 320.98254,260 320,260 c -0.98254,0 -1.96271,-0.0482 -2.94052,-0.1445 -0.97781,-0.0963 -1.94855,-0.2403 -2.9122,-0.43198 -0.96366,-0.19168 -1.91559,-0.43011 -2.85581,-0.7153 -0.94024,-0.28525 -1.86425,-0.61584 -2.772,-0.99185 -0.90775,-0.37601 -1.79486,-0.79556 -2.66138,-1.25873 -0.86654,-0.46316 -1.70828,-0.96768 -2.52523,-1.51356 -0.81693,-0.54586 -1.60517,-1.13045 -2.36466,-1.75377 -0.75949,-0.62331 -1.48663,-1.28235 -2.18143,-1.97711 -0.69473,-0.69475 -1.35376,-1.42188 -1.97708,-2.18139 -0.62332,-0.75952 -1.20791,-1.54776 -1.75378,-2.36473 -0.54587,-0.81692 -1.05039,-1.65866 -1.51355,-2.52519 -0.46317,-0.86651 -0.88275,-1.75365 -1.25876,-2.66141 -0.37601,-0.90773 -0.7066,-1.83172 -0.99179,-2.77195 -0.28525,-0.94022 -0.52371,-1.89217 -0.71539,-2.85584 -0.19168,-0.96365 -0.33567,-1.93437 -0.43195,-2.91217 -0.0963,-0.9778 -0.14444,-1.95798 -0.14447,-2.94052 3e-5,-0.98253 0.0482,-1.96271 0.14447,-2.94051 0.0963,-0.97779 0.24027,-1.94854 0.43195,-2.91221 0.19168,-0.96367 0.43014,-1.91561 0.71539,-2.85582 0.28519,-0.94025 0.61578,-1.86424 0.99179,-2.77199 0.37601,-0.90773 0.79559,-1.79486 1.25876,-2.66138 0.46316,-0.86653 0.96768,-1.70826 1.51355,-2.52522 0.54587,-0.81694 1.13046,-1.60516 1.75378,-2.36467 0.62332,-0.75951 1.28235,-1.48665 1.97708,-2.18141 0.6948,-0.69475 1.42194,-1.35379 2.18143,-1.9771 0.75949,-0.62332 1.54773,-1.20791 2.36466,-1.7538 0.81695,-0.54585 1.65869,-1.05037 2.5252,-1.51355 0.86655,-0.46315 1.75366,-0.88272 2.66141,-1.25874 0.90775,-0.37599 1.83176,-0.70659 2.772,-0.99182 0.94022,-0.2852 1.89215,-0.52365 2.85581,-0.71535 0.96365,-0.19166 1.93439,-0.33566 2.9122,-0.43196 C 318.03729,200.04816 319.01746,200 320,200 c 0.98254,0 1.96271,0.0482 2.94052,0.14445 0.97781,0.0963 1.94852,0.2403 2.91217,0.43197 0.96366,0.19169 1.91559,0.43016 2.85584,0.71536 0.94021,0.28523 1.86419,0.61583 2.77194,0.99182 0.90774,0.37602 1.79489,0.79561 2.66138,1.25876 0.86654,0.46316 1.70828,0.96768 2.5252,1.51355 0.81699,0.54587 1.60523,1.13046 2.36472,1.75378 0.75952,0.62331 1.48666,1.28235 2.1814,1.9771 0.69476,0.69476 1.35379,1.4219 1.97708,2.18141 0.62332,0.75951 1.20791,1.54773 1.75378,2.36467 0.54587,0.81696 1.05039,1.65869 1.51355,2.52521 0.4632,0.86653 0.88278,1.75366 1.25876,2.66139 0.37601,0.90775 0.70663,1.83174 0.99185,2.77199 0.28522,0.94021 0.52365,1.89215 0.71533,2.8558 0.19171,0.96369 0.33573,1.93444 0.43201,2.91223 C 349.95184,228.03729 350,229.01747 350,230 Z"
             style="fill:#0088ef;fill-opacity:1;fill-rule:nonzero;stroke:none"
             id="path54" /></g><g
           id="g56"
           transform="matrix(2.5668557,0,0,2.5668557,-430.81024,-110.9299)"><text
             transform="translate(313.98438,236)"
             style="font-variant:normal;font-weight:normal;font-size:18px;font-family:ArialMT;-inkscape-font-specification:ArialMT;writing-mode:lr-tb;fill:#ffffff;fill-opacity:1;fill-rule:nonzero;stroke:none"
             id="text60"><tspan
               x="0"
               y="0"
               id="tspan58">E</tspan></text></g><g
           id="g62"
           transform="matrix(2.5668557,0,0,2.5668557,-429.52686,-109.64647)"><path
             d="M 341.20999,338.79001 473.41,254.63"
             style="fill:none;stroke:#000000;stroke-width:1;stroke-linecap:butt;stroke-linejoin:miter;stroke-miterlimit:10;stroke-dasharray:none;stroke-opacity:1"
             id="path64" /><path
             d="m 477.84,251.81 -4.01999,6.72 -0.41001,-3.9 -3.35,-2.01 z"
             style="fill:#000000;fill-opacity:1;fill-rule:nonzero;stroke:none"
             id="path66" /><path
             d="m 477.84,251.81 -4.01999,6.72 -0.41001,-3.9 -3.35,-2.01 z"
             style="fill:none;stroke:#000000;stroke-width:1;stroke-linecap:butt;stroke-linejoin:miter;stroke-miterlimit:10;stroke-dasharray:none;stroke-opacity:1"
             id="path68" /><path
             d="m 350,360 c 0,0.98257 -0.0482,1.96274 -0.14447,2.94052 -0.0963,0.97781 -0.2403,1.94852 -0.43204,2.91217 -0.19168,0.96369 -0.43011,1.91562 -0.7153,2.85584 -0.28522,0.94024 -0.61584,1.86422 -0.99185,2.77194 -0.37598,0.90774 -0.79556,1.79489 -1.25876,2.66138 -0.46316,0.86654 -0.96768,1.70828 -1.51355,2.5252 -0.54587,0.81696 -1.13046,1.6052 -1.75378,2.36469 -0.62329,0.75952 -1.28232,1.48666 -1.97708,2.18143 -0.69474,0.69476 -1.42188,1.35382 -2.18137,1.97714 -0.75952,0.62329 -1.54776,1.20785 -2.36475,1.75372 -0.81692,0.54587 -1.65866,1.05039 -2.5252,1.51355 -0.86649,0.46317 -1.75364,0.88275 -2.66138,1.25873 -0.90775,0.37601 -1.83173,0.70663 -2.77194,0.99185 -0.94025,0.28525 -1.89218,0.52368 -2.85584,0.71536 -0.96365,0.19168 -1.93436,0.3357 -2.91217,0.43201 C 321.96271,389.95184 320.98254,390 320,390 c -0.98254,0 -1.96271,-0.0482 -2.94052,-0.14447 -0.97781,-0.0963 -1.94855,-0.24033 -2.9122,-0.43201 -0.96366,-0.19168 -1.91559,-0.43011 -2.85581,-0.71536 -0.94024,-0.28522 -1.86425,-0.61584 -2.772,-0.99185 -0.90775,-0.37598 -1.79486,-0.79556 -2.66138,-1.25873 -0.86654,-0.46316 -1.70828,-0.96768 -2.52523,-1.51355 -0.81693,-0.54587 -1.60517,-1.13043 -2.36466,-1.75375 -0.75949,-0.62332 -1.48663,-1.28235 -2.18143,-1.97711 -0.69473,-0.69477 -1.35376,-1.42191 -1.97708,-2.18143 -0.62332,-0.75949 -1.20791,-1.54773 -1.75378,-2.36469 -0.54587,-0.81692 -1.05039,-1.65866 -1.51355,-2.5252 -0.46317,-0.86649 -0.88275,-1.75364 -1.25876,-2.66138 -0.37601,-0.90772 -0.7066,-1.8317 -0.99179,-2.77194 -0.28525,-0.94022 -0.52371,-1.89215 -0.71539,-2.85584 -0.19168,-0.96365 -0.33567,-1.93436 -0.43195,-2.91217 C 290.04819,361.96274 290.00003,360.98257 290,360 c 3e-5,-0.98251 0.0482,-1.96271 0.14447,-2.94052 0.0963,-0.97778 0.24027,-1.94852 0.43195,-2.91223 0.19168,-0.96366 0.43014,-1.91559 0.71539,-2.85584 0.28519,-0.94021 0.61578,-1.86422 0.99179,-2.77197 0.37601,-0.90775 0.79559,-1.79489 1.25876,-2.66138 0.46316,-0.86654 0.96768,-1.70828 1.51355,-2.52524 0.54587,-0.81692 1.13046,-1.60516 1.75378,-2.36465 0.62332,-0.75952 1.28235,-1.48666 1.97708,-2.1814 0.6948,-0.69473 1.42194,-1.35379 2.18143,-1.97711 0.75949,-0.62332 1.54773,-1.20794 2.36466,-1.75381 0.81695,-0.54587 1.65869,-1.05036 2.5252,-1.51352 0.86655,-0.46317 1.75366,-0.88275 2.66141,-1.25876 0.90775,-0.37601 1.83176,-0.7066 2.772,-0.99179 0.94022,-0.28522 1.89215,-0.52368 2.85581,-0.71536 0.96365,-0.19168 1.93439,-0.33567 2.9122,-0.43195 0.97781,-0.0963 1.95798,-0.14444 2.94052,-0.14447 0.98254,3e-5 1.96271,0.0482 2.94052,0.14447 0.97781,0.0963 1.94852,0.24027 2.91217,0.43195 0.96366,0.19168 1.91559,0.43014 2.85584,0.71536 0.94021,0.28519 1.86419,0.61578 2.77194,0.99179 0.90774,0.37601 1.79489,0.79559 2.66138,1.25876 0.86654,0.46316 1.70828,0.96765 2.5252,1.51352 0.81699,0.54587 1.60523,1.13049 2.36472,1.75381 0.75952,0.62332 1.48666,1.28238 2.1814,1.97711 0.69476,0.69474 1.35379,1.42188 1.97708,2.1814 0.62332,0.75949 1.20791,1.54773 1.75378,2.36465 0.54587,0.81696 1.05039,1.6587 1.51355,2.52521 0.4632,0.86652 0.88278,1.75366 1.25876,2.66141 0.37601,0.90775 0.70663,1.83176 0.99185,2.77197 0.28522,0.94025 0.52365,1.89218 0.71533,2.85584 0.19171,0.96371 0.33573,1.93445 0.43201,2.91223 C 349.95184,358.03729 350,359.01749 350,360 Z"
             style="fill:#0088ef;fill-opacity:1;fill-rule:nonzero;stroke:none"
             id="path70" /></g><g
           id="g72"
           transform="matrix(2.5668557,0,0,2.5668557,-430.81024,-110.9299)"><text
             transform="translate(308.48438,366)"
             style="font-variant:normal;font-weight:normal;font-size:18px;font-family:ArialMT;-inkscape-font-specification:ArialMT;writing-mode:lr-tb;fill:#ffffff;fill-opacity:1;fill-rule:nonzero;stroke:none"
             id="text76"><tspan
               x="0 10.995117"
               y="0"
               sodipodi:role="line"
               id="tspan74">FE</tspan></text></g><g
           id="g78"
           transform="matrix(2.5668557,0,0,2.5668557,-429.52686,-109.64647)"><path
             d="m 530,230 c 0,0.98254 -0.0482,1.96272 -0.14441,2.94052 -0.0964,0.9778 -0.24036,1.94852 -0.43207,2.91217 -0.19171,0.96367 -0.43017,1.91562 -0.71539,2.85584 -0.28522,0.94023 -0.61578,1.86422 -0.99182,2.77195 -0.37598,0.90776 -0.79553,1.7949 -1.25867,2.66141 -0.46319,0.86653 -0.96771,1.70827 -1.51355,2.52519 -0.54584,0.81697 -1.13037,1.60521 -1.75372,2.36472 -0.62335,0.75951 -1.28241,1.48665 -1.97717,2.1814 -0.69471,0.69476 -1.42182,1.3538 -2.1814,1.97711 -0.75946,0.62332 -1.54773,1.20791 -2.36475,1.75377 -0.81695,0.54588 -1.65863,1.0504 -2.52514,1.51356 -0.86658,0.46317 -1.75373,0.88272 -2.66147,1.25873 -0.90775,0.37601 -1.8317,0.7066 -2.77191,0.99185 -0.94022,0.28519 -1.89218,0.52362 -2.85587,0.7153 -0.96365,0.19168 -1.93436,0.3357 -2.91211,0.43198 C 501.96274,259.95184 500.98254,260 500,260 c -0.98251,0 -1.96268,-0.0482 -2.94049,-0.1445 -0.97781,-0.0963 -1.94858,-0.2403 -2.91226,-0.43198 -0.96366,-0.19168 -1.91559,-0.43011 -2.85581,-0.7153 -0.94024,-0.28525 -1.86425,-0.61584 -2.77203,-0.99185 -0.90772,-0.37601 -1.79483,-0.79556 -2.66135,-1.25873 -0.86654,-0.46316 -1.70828,-0.96768 -2.5252,-1.51356 -0.81693,-0.54586 -1.60517,-1.13045 -2.36469,-1.75377 -0.75949,-0.62331 -1.48663,-1.28235 -2.1814,-1.97711 -0.69473,-0.69475 -1.35376,-1.42188 -1.97708,-2.18139 -0.62332,-0.75952 -1.20794,-1.54776 -1.75381,-2.36473 -0.54587,-0.81692 -1.05039,-1.65866 -1.51355,-2.52519 -0.46317,-0.86651 -0.88275,-1.75365 -1.25876,-2.66141 -0.37598,-0.90773 -0.70657,-1.83172 -0.99179,-2.77195 -0.28522,-0.94022 -0.52368,-1.89217 -0.71536,-2.85584 -0.19165,-0.96365 -0.33564,-1.93437 -0.43195,-2.91217 -0.0963,-0.9778 -0.14444,-1.95798 -0.14447,-2.94052 3e-5,-0.98253 0.0482,-1.96271 0.14447,-2.94051 0.0963,-0.97779 0.2403,-1.94854 0.43195,-2.91221 0.19168,-0.96367 0.43014,-1.91561 0.71536,-2.85582 0.28522,-0.94025 0.61581,-1.86424 0.99179,-2.77199 0.37601,-0.90773 0.79559,-1.79486 1.25876,-2.66138 0.46316,-0.86653 0.96768,-1.70826 1.51355,-2.52522 0.54587,-0.81694 1.13046,-1.60516 1.75378,-2.36467 0.62332,-0.75951 1.28238,-1.48665 1.97711,-2.18141 0.69477,-0.69475 1.42191,-1.35379 2.18143,-1.9771 0.75949,-0.62332 1.54773,-1.20791 2.36466,-1.7538 0.81695,-0.54585 1.65869,-1.05037 2.5252,-1.51355 0.86655,-0.46315 1.75366,-0.88272 2.66138,-1.25874 0.90775,-0.37599 1.83176,-0.70659 2.772,-0.99182 0.94022,-0.2852 1.89215,-0.52365 2.85581,-0.71535 0.96368,-0.19166 1.93445,-0.33566 2.91226,-0.43196 C 498.03732,200.04816 499.01749,200 500,200 c 0.98254,0 1.96271,0.0482 2.94052,0.14445 0.97781,0.0963 1.94852,0.2403 2.91217,0.43197 0.96369,0.19169 1.91562,0.43016 2.85584,0.71536 0.94021,0.28523 1.86416,0.61583 2.77191,0.99182 0.90774,0.37602 1.79489,0.79561 2.66147,1.25876 0.86651,0.46316 1.70819,0.96768 2.52514,1.51355 0.81702,0.54587 1.60529,1.13046 2.36475,1.75378 0.75958,0.62331 1.48669,1.28235 2.1814,1.9771 0.69476,0.69476 1.35382,1.4219 1.97717,2.18141 0.62335,0.75951 1.20788,1.54773 1.75372,2.36467 0.5459,0.81696 1.05042,1.65869 1.51361,2.52521 0.46314,0.86653 0.88269,1.75366 1.25867,2.66139 0.37598,0.90775 0.7066,1.83174 0.99182,2.77199 0.28522,0.94021 0.52362,1.89215 0.71533,2.8558 0.19171,0.96369 0.3357,1.93444 0.43207,2.91223 C 529.95184,228.03729 530,229.01747 530,230 Z"
             style="fill:#0088ef;fill-opacity:1;fill-rule:nonzero;stroke:none"
             id="path80" /></g><g
           id="g82"
           transform="matrix(2.5668557,0,0,2.5668557,-430.81024,-110.9299)"><text
             transform="translate(488.48438,236)"
             style="font-variant:normal;font-weight:normal;font-size:18px;font-family:ArialMT;-inkscape-font-specification:ArialMT;writing-mode:lr-tb;fill:#ffffff;fill-opacity:1;fill-rule:nonzero;stroke:none"
             id="text86"><tspan
               x="0 12.999023"
               y="0"
               sodipodi:role="line"
               id="tspan84">RL</tspan></text></g><g
           id="g88"
           transform="matrix(2.5668557,0,0,2.5668557,-429.52686,-109.64647)"><path
             d="M 313.94,129.75999 313.56,194.05"
             style="fill:none;stroke:#000000;stroke-width:1;stroke-linecap:butt;stroke-linejoin:miter;stroke-miterlimit:10;stroke-dasharray:none;stroke-opacity:1"
             id="path90" /><path
             d="m 313.53,199.3 -3.45999,-7.02 3.48999,1.77 3.51001,-1.72999 z"
             style="fill:#000000;fill-opacity:1;fill-rule:nonzero;stroke:none"
             id="path92" /><path
             d="m 313.53,199.3 -3.45999,-7.02 3.48999,1.77 3.51001,-1.72999 z"
             style="fill:none;stroke:#000000;stroke-width:1;stroke-linecap:butt;stroke-linejoin:miter;stroke-miterlimit:10;stroke-dasharray:none;stroke-opacity:1"
             id="path94" /><path
             d="M 326,200 V 136.36999"
             style="fill:none;stroke:#000000;stroke-width:1;stroke-linecap:butt;stroke-linejoin:miter;stroke-miterlimit:10;stroke-dasharray:none;stroke-opacity:1"
             id="path96" /><path
             d="m 326,131.11999 3.5,7 -3.5,-1.75 -3.5,1.75 z"
             style="fill:#000000;fill-opacity:1;fill-rule:nonzero;stroke:none"
             id="path98" /><path
             d="m 326,131.11999 3.5,7 -3.5,-1.75 -3.5,1.75 z"
             style="fill:none;stroke:#000000;stroke-width:1;stroke-linecap:butt;stroke-linejoin:miter;stroke-miterlimit:10;stroke-dasharray:none;stroke-opacity:1"
             id="path100" /><path
             d="m 314.73999,259.16208 -0.033,7.99994 -1,-0.004 0.033,-7.99994 m 0.93402,16.00403 -0.033,7.99991 -1,-0.004 0.033,-7.9999 m 0.93402,16.00399 -0.033,7.99994 -1,-0.004 0.033,-7.99994 m 0.93402,16.00403 -0.033,7.99991 -1,-0.004 0.033,-7.99991 m 0.93402,16.004 -0.006,1.47055 -1,-0.004 0.006,-1.47055"
             style="fill:#000000;fill-opacity:1;fill-rule:nonzero;stroke:none"
             id="path102" /><path
             d="m 313.94,329.88 -3.47,-7.01 3.5,1.76 3.5,-1.73001 z"
             style="fill:#000000;fill-opacity:1;fill-rule:nonzero;stroke:none"
             id="path104" /><path
             d="m 313.94,329.88 -3.47,-7.01 3.5,1.76 3.5,-1.73001 z"
             style="fill:none;stroke:#000000;stroke-width:1;stroke-linecap:butt;stroke-linejoin:miter;stroke-miterlimit:10;stroke-dasharray:none;stroke-opacity:1"
             id="path106" /><path
             d="m 325.94,331 -0.66,-65.04999"
             style="fill:none;stroke:#000000;stroke-width:1;stroke-linecap:butt;stroke-linejoin:miter;stroke-miterlimit:10;stroke-dasharray:none;stroke-opacity:1"
             id="path108" /><path
             d="m 325.23001,260.70001 3.56998,6.95999 -3.51999,-1.70999 -3.48001,1.78 z"
             style="fill:#000000;fill-opacity:1;fill-rule:nonzero;stroke:none"
             id="path110" /><path
             d="m 325.23001,260.70001 3.56998,6.95999 -3.51999,-1.70999 -3.48001,1.78 z"
             style="fill:none;stroke:#000000;stroke-width:1;stroke-linecap:butt;stroke-linejoin:miter;stroke-miterlimit:10;stroke-dasharray:none;stroke-opacity:1"
             id="path112" /><path
             d="M 471,226 H 355.37"
             style="fill:none;stroke:#000000;stroke-width:1;stroke-linecap:butt;stroke-linejoin:miter;stroke-miterlimit:10;stroke-dasharray:none;stroke-opacity:1"
             id="path114" /><path
             d="m 350.12,226 7,-3.5 -1.75,3.5 1.75,3.5 z"
             style="fill:#000000;fill-opacity:1;fill-rule:nonzero;stroke:none"
             id="path116" /><path
             d="m 350.12,226 7,-3.5 -1.75,3.5 1.75,3.5 z"
             style="fill:none;stroke:#000000;stroke-width:1;stroke-linecap:butt;stroke-linejoin:miter;stroke-miterlimit:10;stroke-dasharray:none;stroke-opacity:1"
             id="path118" /><path
             d="m 230,100 h 53.63"
             style="fill:none;stroke:#000000;stroke-width:1;stroke-linecap:butt;stroke-linejoin:miter;stroke-miterlimit:10;stroke-dasharray:none;stroke-opacity:1"
             id="path120" /><path
             d="m 288.88,100 -7,3.5 1.75,-3.5 -1.75,-3.5 z"
             style="fill:#000000;fill-opacity:1;fill-rule:nonzero;stroke:none"
             id="path122" /><path
             d="m 288.88,100 -7,3.5 1.75,-3.5 -1.75,-3.5 z"
             style="fill:none;stroke:#000000;stroke-width:1;stroke-linecap:butt;stroke-linejoin:miter;stroke-miterlimit:10;stroke-dasharray:none;stroke-opacity:1"
             id="path124" /><path
             d="m 230,100 c -2e-5,0.98492 -0.0961,1.96037 -0.28824,2.92635 -0.19215,0.96598 -0.4767,1.90395 -0.85361,2.81389 -0.3769,0.90994 -0.83895,1.77438 -1.38615,2.5933 -0.54716,0.81893 -1.16898,1.57661 -1.86542,2.27305 -0.69644,0.69643 -1.45413,1.31825 -2.27305,1.86544 -0.81893,0.54718 -1.68337,1.00923 -2.5933,1.38615 -0.90994,0.3769 -1.84791,0.66144 -2.8139,0.85359 -0.96599,0.19215 -1.94142,0.28822 -2.92633,0.28823 -0.98491,-1e-5 -1.96037,-0.0961 -2.92638,-0.28823 -0.96598,-0.19215 -1.90394,-0.47669 -2.81388,-0.85359 -0.90996,-0.37692 -1.77439,-0.83897 -2.59331,-1.38615 -0.81893,-0.54719 -1.57662,-1.16901 -2.27304,-1.86544 -0.69644,-0.69644 -1.31826,-1.45412 -1.86545,-2.27306 -0.5472,-0.81891 -1.00925,-1.68335 -1.38616,-2.59329 -0.3769,-0.90994 -0.66143,-1.84791 -0.85359,-2.81389 C 200.09605,101.96037 199.99998,100.98492 200,100 c -2e-5,-0.984917 0.096,-1.960373 0.28821,-2.926369 0.19212,-0.96598 0.47665,-1.903946 0.85356,-2.813888 0.37691,-0.909935 0.83896,-1.774369 1.38615,-2.5933 0.5472,-0.818932 1.16903,-1.576615 1.86547,-2.273049 0.69642,-0.696441 1.45411,-1.318252 2.27304,-1.86544 0.81892,-0.547188 1.68335,-1.009239 2.59331,-1.386154 0.90994,-0.376915 1.8479,-0.661438 2.81388,-0.853584 C 213.03963,85.096077 214.01509,85.000008 215,85 c 0.98491,8e-6 1.96034,0.09608 2.92633,0.288216 0.96599,0.192146 1.90396,0.476669 2.81389,0.853584 0.90993,0.376915 1.77437,0.838966 2.59331,1.386154 0.81892,0.547188 1.57661,1.168999 2.27305,1.86544 0.69644,0.696434 1.31826,1.454117 1.86542,2.273049 0.5472,0.818931 1.00925,1.683365 1.38615,2.5933 0.37691,0.909942 0.66146,1.847908 0.85361,2.813896 C 229.90392,98.039627 229.99998,99.015083 230,100 Z"
             style="fill:#000000;fill-opacity:1;fill-rule:nonzero;stroke:none"
             id="path126" /><path
             d="m 230,100 c -2e-5,0.98492 -0.0961,1.96037 -0.28824,2.92635 -0.19215,0.96598 -0.4767,1.90395 -0.85361,2.81389 -0.3769,0.90994 -0.83895,1.77438 -1.38615,2.5933 -0.54716,0.81893 -1.16898,1.57661 -1.86542,2.27305 -0.69644,0.69643 -1.45413,1.31825 -2.27305,1.86544 -0.81893,0.54718 -1.68337,1.00923 -2.5933,1.38615 -0.90994,0.3769 -1.84791,0.66144 -2.8139,0.85359 -0.96599,0.19215 -1.94142,0.28822 -2.92633,0.28823 -0.98491,-1e-5 -1.96037,-0.0961 -2.92638,-0.28823 -0.96598,-0.19215 -1.90394,-0.47669 -2.81388,-0.85359 -0.90996,-0.37692 -1.77439,-0.83897 -2.59331,-1.38615 -0.81893,-0.54719 -1.57662,-1.16901 -2.27304,-1.86544 -0.69644,-0.69644 -1.31826,-1.45412 -1.86545,-2.27306 -0.5472,-0.81891 -1.00925,-1.68335 -1.38616,-2.59329 -0.3769,-0.90994 -0.66143,-1.84791 -0.85359,-2.81389 C 200.09605,101.96037 199.99998,100.98492 200,100 c -2e-5,-0.984917 0.096,-1.960373 0.28821,-2.926369 0.19212,-0.96598 0.47665,-1.903946 0.85356,-2.813888 0.37691,-0.909935 0.83896,-1.774369 1.38615,-2.5933 0.5472,-0.818932 1.16903,-1.576615 1.86547,-2.273049 0.69642,-0.696441 1.45411,-1.318252 2.27304,-1.86544 0.81892,-0.547188 1.68335,-1.009239 2.59331,-1.386154 0.90994,-0.376915 1.8479,-0.661438 2.81388,-0.853584 C 213.03963,85.096077 214.01509,85.000008 215,85 c 0.98491,8e-6 1.96034,0.09608 2.92633,0.288216 0.96599,0.192146 1.90396,0.476669 2.81389,0.853584 0.90993,0.376915 1.77437,0.838966 2.59331,1.386154 0.81892,0.547188 1.57661,1.168999 2.27305,1.86544 0.69644,0.696434 1.31826,1.454117 1.86542,2.273049 0.5472,0.818931 1.00925,1.683365 1.38615,2.5933 0.37691,0.909942 0.66146,1.847908 0.85361,2.813896 C 229.90392,98.039627 229.99998,99.015083 230,100 Z"
             style="fill:none;stroke:#000000;stroke-width:1;stroke-linecap:butt;stroke-linejoin:miter;stroke-miterlimit:10;stroke-dasharray:none;stroke-opacity:1"
             id="path128" /><path
             d="m 290,230 c -20,-6.66667 -33.33334,-8.33333 -40,-5 -6.66667,3.33333 -6.66667,6.66667 0,10 6.66666,3.33333 17.98666,2.33667 33.95999,-2.99001"
             style="fill:none;stroke:#000000;stroke-width:1;stroke-linecap:butt;stroke-linejoin:miter;stroke-miterlimit:10;stroke-dasharray:none;stroke-opacity:1"
             id="path130" /><path
             d="m 288.94,230.35001 -5.53,5.53999 0.54999,-3.88001 L 281.19,229.25 Z"
             style="fill:#000000;fill-opacity:1;fill-rule:nonzero;stroke:none"
             id="path132" /><path
             d="m 288.94,230.35001 -5.53,5.53999 0.54999,-3.88001 L 281.19,229.25 Z"
             style="fill:none;stroke:#000000;stroke-width:1;stroke-linecap:butt;stroke-linejoin:miter;stroke-miterlimit:10;stroke-dasharray:none;stroke-opacity:1"
             id="path134" /><path
             d="m 530,230 c 20,-6.66667 33.33331,-8.33333 40,-5 6.66669,3.33333 6.66669,6.66667 0,10 -6.66669,3.33333 -17.98669,2.33667 -33.96002,-2.99001"
             style="fill:none;stroke:#000000;stroke-width:1;stroke-linecap:butt;stroke-linejoin:miter;stroke-miterlimit:10;stroke-dasharray:none;stroke-opacity:1"
             id="path136" /><path
             d="m 531.06,230.35001 7.75,-1.10001 -2.77002,2.75999 0.55005,3.88001 z"
             style="fill:#000000;fill-opacity:1;fill-rule:nonzero;stroke:none"
             id="path138" /><path
             d="m 531.06,230.35001 7.75,-1.10001 -2.77002,2.75999 0.55005,3.88001 z"
             style="fill:none;stroke:#000000;stroke-width:1;stroke-linecap:butt;stroke-linejoin:miter;stroke-miterlimit:10;stroke-dasharray:none;stroke-opacity:1"
             id="path140" /></g></g></g></g></svg>
